<svg width="524" height="254" viewBox="0 0 524 254" fill="none" xmlns="http://www.w3.org/2000/svg">
<g filter="url(#filter0_d)">
<path d="M340 245.093C398.542 245.093 446 197.636 446 139.093C446 80.5513 398.542 33.0934 340 33.0934C281.458 33.0934 234 80.5513 234 139.093C234 197.636 281.458 245.093 340 245.093Z" fill="#AAE0E7"/>
</g>
<path d="M26.752 108.957C23.936 107.997 21.376 107.037 19.072 106.077C16.768 105.053 14.784 103.837 13.12 102.429C11.456 101.021 10.144 99.3574 9.184 97.4374C8.288 95.4534 7.84 93.0534 7.84 90.2374C7.84 84.7974 9.92 80.4454 14.08 77.1814C18.304 73.9174 24.192 72.2854 31.744 72.2854C34.496 72.2854 37.056 72.4774 39.424 72.8614C41.792 73.2454 43.808 73.8534 45.472 74.6854C47.2 75.4534 48.544 76.4774 49.504 77.7574C50.464 78.9734 50.944 80.4134 50.944 82.0774C50.944 83.7414 50.56 85.1814 49.792 86.3974C49.024 87.5494 48.096 88.5414 47.008 89.3734C45.6 88.4774 43.712 87.7094 41.344 87.0694C38.976 86.3654 36.384 86.0134 33.568 86.0134C30.688 86.0134 28.576 86.4294 27.232 87.2614C25.888 88.0294 25.216 89.0214 25.216 90.2374C25.216 91.1974 25.632 91.9974 26.464 92.6374C27.296 93.2134 28.544 93.7574 30.208 94.2694L35.296 95.9014C41.312 97.8214 45.92 100.285 49.12 103.293C52.384 106.237 54.016 110.269 54.016 115.389C54.016 120.829 51.872 125.245 47.584 128.637C43.296 131.965 36.992 133.629 28.672 133.629C25.728 133.629 22.976 133.373 20.416 132.861C17.92 132.413 15.712 131.741 13.792 130.845C11.936 129.885 10.464 128.733 9.376 127.389C8.352 125.981 7.84 124.381 7.84 122.589C7.84 120.733 8.384 119.165 9.472 117.885C10.56 116.541 11.744 115.517 13.024 114.813C14.816 116.221 16.992 117.437 19.552 118.461C22.176 119.485 25.024 119.997 28.096 119.997C31.232 119.997 33.44 119.517 34.72 118.557C36 117.597 36.64 116.477 36.64 115.197C36.64 113.917 36.128 112.957 35.104 112.317C34.08 111.613 32.64 110.941 30.784 110.301L26.752 108.957ZM87.5215 130.653C86.6255 131.421 85.4095 132.029 83.8735 132.477C82.3375 132.989 80.5135 133.245 78.4015 133.245C75.7775 133.245 73.5055 132.861 71.5855 132.093C69.6655 131.389 68.3855 130.365 67.7455 129.021C67.0415 127.485 66.2095 125.053 65.2495 121.725C64.3535 118.397 63.4575 114.749 62.5615 110.781C61.6655 106.813 60.8015 102.781 59.9695 98.6854C59.2015 94.5894 58.5935 90.9734 58.1455 87.8374C59.0415 86.9414 60.2255 86.1734 61.6975 85.5334C63.2335 84.8294 64.8975 84.4774 66.6895 84.4774C68.9295 84.4774 70.7535 84.9894 72.1615 86.0134C73.6335 86.9734 74.5295 88.6694 74.8495 91.1014C75.4895 95.9654 76.0335 99.9974 76.4815 103.197C76.9295 106.333 77.2815 108.925 77.5375 110.973C77.8575 112.957 78.0815 114.493 78.2095 115.581C78.4015 116.605 78.5615 117.437 78.6895 118.077H79.0735C79.2655 117.053 79.5855 115.581 80.0335 113.661C80.5455 111.677 81.1215 109.437 81.7615 106.941C82.4015 104.445 83.0735 101.757 83.7775 98.8774C84.4815 95.9334 85.1855 93.0214 85.8895 90.1414C87.1695 89.4374 88.4175 88.8934 89.6335 88.5094C90.9135 88.1254 92.4815 87.9334 94.3375 87.9334C96.5775 87.9334 98.4975 88.2854 100.098 88.9894C101.698 89.6934 102.722 90.7814 103.17 92.2534C103.938 95.0694 104.674 97.8214 105.378 100.509C106.082 103.133 106.722 105.597 107.298 107.901C107.874 110.141 108.386 112.157 108.833 113.949C109.282 115.677 109.602 117.053 109.794 118.077H110.274C110.978 113.149 111.65 108.029 112.29 102.717C112.994 97.4054 113.634 91.9974 114.21 86.4934C115.362 85.7894 116.578 85.2774 117.858 84.9574C119.138 84.6374 120.418 84.4774 121.698 84.4774C123.938 84.4774 125.794 84.9574 127.266 85.9174C128.738 86.8774 129.474 88.5414 129.474 90.9094C129.474 91.9334 129.314 93.4694 128.994 95.5174C128.674 97.5654 128.258 99.8694 127.746 102.429C127.234 104.989 126.626 107.677 125.922 110.493C125.282 113.309 124.61 116.029 123.906 118.653C123.266 121.277 122.626 123.645 121.986 125.757C121.41 127.869 120.898 129.501 120.45 130.653C119.554 131.421 118.178 132.029 116.322 132.477C114.466 132.989 112.482 133.245 110.37 133.245C104.994 133.245 101.826 131.901 100.866 129.213C100.482 128.061 100.002 126.621 99.4255 124.893C98.8495 123.101 98.2415 121.149 97.6015 119.037C96.9615 116.925 96.3535 114.749 95.7775 112.509C95.2015 110.205 94.7215 107.997 94.3375 105.885C93.8895 108.125 93.3455 110.461 92.7055 112.893C92.0655 115.261 91.3935 117.597 90.6895 119.901C90.0495 122.141 89.4415 124.221 88.8655 126.141C88.2895 127.997 87.8415 129.501 87.5215 130.653ZM161.539 133.629C157.763 133.629 154.243 133.117 150.979 132.093C147.779 131.005 144.963 129.405 142.531 127.293C140.163 125.181 138.275 122.525 136.867 119.325C135.523 116.125 134.851 112.381 134.851 108.093C134.851 103.869 135.523 100.253 136.867 97.2454C138.275 94.1734 140.099 91.6774 142.339 89.7574C144.579 87.7734 147.139 86.3334 150.019 85.4374C152.899 84.4774 155.843 83.9974 158.851 83.9974C162.243 83.9974 165.315 84.5094 168.067 85.5334C170.883 86.5574 173.283 87.9654 175.267 89.7574C177.315 91.5494 178.883 93.6934 179.971 96.1894C181.123 98.6854 181.699 101.405 181.699 104.349C181.699 106.525 181.091 108.189 179.875 109.341C178.659 110.493 176.963 111.229 174.787 111.549L151.075 115.101C151.779 117.213 153.219 118.813 155.395 119.901C157.571 120.925 160.067 121.437 162.883 121.437C165.507 121.437 167.971 121.117 170.275 120.477C172.643 119.773 174.563 118.973 176.035 118.077C177.059 118.717 177.923 119.613 178.627 120.765C179.331 121.917 179.683 123.133 179.683 124.413C179.683 127.293 178.339 129.437 175.651 130.845C173.603 131.933 171.299 132.669 168.739 133.053C166.179 133.437 163.779 133.629 161.539 133.629ZM158.851 95.9014C157.315 95.9014 155.971 96.1574 154.819 96.6694C153.731 97.1814 152.835 97.8534 152.131 98.6854C151.427 99.4534 150.883 100.349 150.499 101.373C150.179 102.333 149.987 103.325 149.923 104.349L166.339 101.661C166.147 100.381 165.443 99.1014 164.227 97.8214C163.011 96.5414 161.219 95.9014 158.851 95.9014ZM214.227 133.629C210.451 133.629 206.931 133.117 203.667 132.093C200.467 131.005 197.651 129.405 195.219 127.293C192.851 125.181 190.963 122.525 189.555 119.325C188.211 116.125 187.539 112.381 187.539 108.093C187.539 103.869 188.211 100.253 189.555 97.2454C190.963 94.1734 192.787 91.6774 195.027 89.7574C197.267 87.7734 199.827 86.3334 202.707 85.4374C205.587 84.4774 208.531 83.9974 211.539 83.9974C214.931 83.9974 218.003 84.5094 220.755 85.5334C223.571 86.5574 225.971 87.9654 227.955 89.7574C230.003 91.5494 231.571 93.6934 232.659 96.1894C233.811 98.6854 234.387 101.405 234.387 104.349C234.387 106.525 233.779 108.189 232.562 109.341C231.347 110.493 229.651 111.229 227.475 111.549L203.763 115.101C204.467 117.213 205.907 118.813 208.083 119.901C210.259 120.925 212.755 121.437 215.571 121.437C218.195 121.437 220.659 121.117 222.963 120.477C225.331 119.773 227.251 118.973 228.723 118.077C229.747 118.717 230.611 119.613 231.315 120.765C232.019 121.917 232.371 123.133 232.371 124.413C232.371 127.293 231.027 129.437 228.339 130.845C226.291 131.933 223.987 132.669 221.427 133.053C218.867 133.437 216.467 133.629 214.227 133.629ZM211.539 95.9014C210.003 95.9014 208.659 96.1574 207.507 96.6694C206.419 97.1814 205.523 97.8534 204.819 98.6854C204.115 99.4534 203.571 100.349 203.187 101.373C202.867 102.333 202.675 103.325 202.611 104.349L219.027 101.661C218.835 100.381 218.131 99.1014 216.915 97.8214C215.699 96.5414 213.907 95.9014 211.539 95.9014ZM258.562 116.061C258.562 117.725 259.074 118.909 260.098 119.613C261.186 120.317 262.69 120.669 264.61 120.669C265.57 120.669 266.562 120.605 267.586 120.477C268.61 120.285 269.506 120.061 270.274 119.805C270.85 120.509 271.33 121.309 271.714 122.205C272.162 123.037 272.386 124.061 272.386 125.277C272.386 127.709 271.458 129.693 269.602 131.229C267.81 132.765 264.61 133.533 260.002 133.533C254.37 133.533 250.018 132.253 246.946 129.693C243.938 127.133 242.434 122.973 242.434 117.213V76.1254C243.138 75.9334 244.13 75.7414 245.41 75.5494C246.754 75.2934 248.162 75.1654 249.634 75.1654C252.45 75.1654 254.626 75.6774 256.162 76.7014C257.762 77.6614 258.562 79.7414 258.562 82.9414V89.0854H271.138C271.522 89.7894 271.874 90.6854 272.194 91.7734C272.578 92.7974 272.77 93.9494 272.77 95.2294C272.77 97.4694 272.258 99.1014 271.234 100.125C270.274 101.085 268.962 101.565 267.298 101.565H258.562V116.061Z" fill="#7D90F8"/>
<g filter="url(#filter1_d)">
<path d="M23.752 107.957C20.936 106.997 18.376 106.037 16.072 105.077C13.768 104.053 11.784 102.837 10.12 101.429C8.456 100.021 7.144 98.3574 6.184 96.4374C5.288 94.4534 4.84 92.0534 4.84 89.2374C4.84 83.7974 6.92 79.4454 11.08 76.1814C15.304 72.9174 21.192 71.2854 28.744 71.2854C31.496 71.2854 34.056 71.4774 36.424 71.8614C38.792 72.2454 40.808 72.8534 42.472 73.6854C44.2 74.4534 45.544 75.4774 46.504 76.7574C47.464 77.9734 47.944 79.4134 47.944 81.0774C47.944 82.7414 47.56 84.1814 46.792 85.3974C46.024 86.5494 45.096 87.5414 44.008 88.3734C42.6 87.4774 40.712 86.7094 38.344 86.0694C35.976 85.3654 33.384 85.0134 30.568 85.0134C27.688 85.0134 25.576 85.4294 24.232 86.2614C22.888 87.0294 22.216 88.0214 22.216 89.2374C22.216 90.1974 22.632 90.9974 23.464 91.6374C24.296 92.2134 25.544 92.7574 27.208 93.2694L32.296 94.9014C38.312 96.8214 42.92 99.2854 46.12 102.293C49.384 105.237 51.016 109.269 51.016 114.389C51.016 119.829 48.872 124.245 44.584 127.637C40.296 130.965 33.992 132.629 25.672 132.629C22.728 132.629 19.976 132.373 17.416 131.861C14.92 131.413 12.712 130.741 10.792 129.845C8.936 128.885 7.464 127.733 6.376 126.389C5.352 124.981 4.84 123.381 4.84 121.589C4.84 119.733 5.384 118.165 6.472 116.885C7.56 115.541 8.744 114.517 10.024 113.813C11.816 115.221 13.992 116.437 16.552 117.461C19.176 118.485 22.024 118.997 25.096 118.997C28.232 118.997 30.44 118.517 31.72 117.557C33 116.597 33.64 115.477 33.64 114.197C33.64 112.917 33.128 111.957 32.104 111.317C31.08 110.613 29.64 109.941 27.784 109.301L23.752 107.957ZM84.5215 129.653C83.6255 130.421 82.4095 131.029 80.8735 131.477C79.3375 131.989 77.5135 132.245 75.4015 132.245C72.7775 132.245 70.5055 131.861 68.5855 131.093C66.6655 130.389 65.3855 129.365 64.7455 128.021C64.0415 126.485 63.2095 124.053 62.2495 120.725C61.3535 117.397 60.4575 113.749 59.5615 109.781C58.6655 105.813 57.8015 101.781 56.9695 97.6854C56.2015 93.5894 55.5935 89.9734 55.1455 86.8374C56.0415 85.9414 57.2255 85.1734 58.6975 84.5334C60.2335 83.8294 61.8975 83.4774 63.6895 83.4774C65.9295 83.4774 67.7535 83.9894 69.1615 85.0134C70.6335 85.9734 71.5295 87.6694 71.8495 90.1014C72.4895 94.9654 73.0335 98.9974 73.4815 102.197C73.9295 105.333 74.2815 107.925 74.5375 109.973C74.8575 111.957 75.0815 113.493 75.2095 114.581C75.4015 115.605 75.5615 116.437 75.6895 117.077H76.0735C76.2655 116.053 76.5855 114.581 77.0335 112.661C77.5455 110.677 78.1215 108.437 78.7615 105.941C79.4015 103.445 80.0735 100.757 80.7775 97.8774C81.4815 94.9334 82.1855 92.0214 82.8895 89.1414C84.1695 88.4374 85.4175 87.8934 86.6335 87.5094C87.9135 87.1254 89.4815 86.9334 91.3375 86.9334C93.5775 86.9334 95.4975 87.2854 97.0975 87.9894C98.6975 88.6934 99.7215 89.7814 100.17 91.2534C100.938 94.0694 101.674 96.8214 102.378 99.5094C103.082 102.133 103.722 104.597 104.298 106.901C104.874 109.141 105.386 111.157 105.833 112.949C106.282 114.677 106.602 116.053 106.794 117.077H107.274C107.978 112.149 108.65 107.029 109.29 101.717C109.994 96.4054 110.634 90.9974 111.21 85.4934C112.362 84.7894 113.578 84.2774 114.858 83.9574C116.138 83.6374 117.418 83.4774 118.698 83.4774C120.938 83.4774 122.794 83.9574 124.266 84.9174C125.738 85.8774 126.474 87.5414 126.474 89.9094C126.474 90.9334 126.314 92.4694 125.994 94.5174C125.674 96.5654 125.258 98.8694 124.746 101.429C124.234 103.989 123.626 106.677 122.922 109.493C122.282 112.309 121.61 115.029 120.906 117.653C120.266 120.277 119.626 122.645 118.986 124.757C118.41 126.869 117.898 128.501 117.45 129.653C116.554 130.421 115.178 131.029 113.322 131.477C111.466 131.989 109.482 132.245 107.37 132.245C101.994 132.245 98.8255 130.901 97.8655 128.213C97.4815 127.061 97.0015 125.621 96.4255 123.893C95.8495 122.101 95.2415 120.149 94.6015 118.037C93.9615 115.925 93.3535 113.749 92.7775 111.509C92.2015 109.205 91.7215 106.997 91.3375 104.885C90.8895 107.125 90.3455 109.461 89.7055 111.893C89.0655 114.261 88.3935 116.597 87.6895 118.901C87.0495 121.141 86.4415 123.221 85.8655 125.141C85.2895 126.997 84.8415 128.501 84.5215 129.653ZM158.539 132.629C154.763 132.629 151.243 132.117 147.979 131.093C144.779 130.005 141.963 128.405 139.531 126.293C137.163 124.181 135.275 121.525 133.867 118.325C132.523 115.125 131.851 111.381 131.851 107.093C131.851 102.869 132.523 99.2534 133.867 96.2454C135.275 93.1734 137.099 90.6774 139.339 88.7574C141.579 86.7734 144.139 85.3334 147.019 84.4374C149.899 83.4774 152.843 82.9974 155.851 82.9974C159.243 82.9974 162.315 83.5094 165.067 84.5334C167.883 85.5574 170.283 86.9654 172.267 88.7574C174.315 90.5494 175.883 92.6934 176.971 95.1894C178.123 97.6854 178.699 100.405 178.699 103.349C178.699 105.525 178.091 107.189 176.875 108.341C175.659 109.493 173.963 110.229 171.787 110.549L148.075 114.101C148.779 116.213 150.219 117.813 152.395 118.901C154.571 119.925 157.067 120.437 159.883 120.437C162.507 120.437 164.971 120.117 167.275 119.477C169.643 118.773 171.563 117.973 173.035 117.077C174.059 117.717 174.923 118.613 175.627 119.765C176.331 120.917 176.683 122.133 176.683 123.413C176.683 126.293 175.339 128.437 172.651 129.845C170.603 130.933 168.299 131.669 165.739 132.053C163.179 132.437 160.779 132.629 158.539 132.629ZM155.851 94.9014C154.315 94.9014 152.971 95.1574 151.819 95.6694C150.731 96.1814 149.835 96.8534 149.131 97.6854C148.427 98.4534 147.883 99.3494 147.499 100.373C147.179 101.333 146.987 102.325 146.923 103.349L163.339 100.661C163.147 99.3814 162.443 98.1014 161.227 96.8214C160.011 95.5414 158.219 94.9014 155.851 94.9014ZM211.227 132.629C207.451 132.629 203.931 132.117 200.667 131.093C197.467 130.005 194.651 128.405 192.219 126.293C189.851 124.181 187.963 121.525 186.555 118.325C185.211 115.125 184.539 111.381 184.539 107.093C184.539 102.869 185.211 99.2534 186.555 96.2454C187.963 93.1734 189.787 90.6774 192.027 88.7574C194.267 86.7734 196.827 85.3334 199.707 84.4374C202.587 83.4774 205.531 82.9974 208.539 82.9974C211.931 82.9974 215.003 83.5094 217.755 84.5334C220.571 85.5574 222.971 86.9654 224.955 88.7574C227.003 90.5494 228.571 92.6934 229.659 95.1894C230.811 97.6854 231.387 100.405 231.387 103.349C231.387 105.525 230.779 107.189 229.562 108.341C228.347 109.493 226.651 110.229 224.475 110.549L200.763 114.101C201.467 116.213 202.907 117.813 205.083 118.901C207.259 119.925 209.755 120.437 212.571 120.437C215.195 120.437 217.659 120.117 219.963 119.477C222.331 118.773 224.251 117.973 225.723 117.077C226.747 117.717 227.611 118.613 228.315 119.765C229.019 120.917 229.371 122.133 229.371 123.413C229.371 126.293 228.027 128.437 225.339 129.845C223.291 130.933 220.987 131.669 218.427 132.053C215.867 132.437 213.467 132.629 211.227 132.629ZM208.539 94.9014C207.003 94.9014 205.659 95.1574 204.507 95.6694C203.419 96.1814 202.523 96.8534 201.819 97.6854C201.115 98.4534 200.571 99.3494 200.187 100.373C199.867 101.333 199.675 102.325 199.611 103.349L216.027 100.661C215.835 99.3814 215.131 98.1014 213.915 96.8214C212.699 95.5414 210.907 94.9014 208.539 94.9014ZM255.562 115.061C255.562 116.725 256.074 117.909 257.098 118.613C258.186 119.317 259.69 119.669 261.61 119.669C262.57 119.669 263.562 119.605 264.586 119.477C265.61 119.285 266.506 119.061 267.274 118.805C267.85 119.509 268.33 120.309 268.714 121.205C269.162 122.037 269.386 123.061 269.386 124.277C269.386 126.709 268.458 128.693 266.602 130.229C264.81 131.765 261.61 132.533 257.002 132.533C251.37 132.533 247.018 131.253 243.946 128.693C240.938 126.133 239.434 121.973 239.434 116.213V75.1254C240.138 74.9334 241.13 74.7414 242.41 74.5494C243.754 74.2934 245.162 74.1654 246.634 74.1654C249.45 74.1654 251.626 74.6774 253.162 75.7014C254.762 76.6614 255.562 78.7414 255.562 81.9414V88.0854H268.138C268.522 88.7894 268.874 89.6854 269.194 90.7734C269.578 91.7974 269.77 92.9494 269.77 94.2294C269.77 96.4694 269.258 98.1014 268.234 99.1254C267.274 100.085 265.962 100.565 264.298 100.565H255.562V115.061Z" fill="#B0B7DC"/>
</g>
<g filter="url(#filter2_d)">
<path d="M504.239 32.5007C519.423 40.4056 524.509 57.6407 515.639 70.9902C512.807 75.2475 509.331 78.7376 505.298 81.6582C501.441 79.7735 496.546 78.9708 490.612 79.7968L414.876 90.4008C403.994 59.0019 391.82 34.9198 405.86 13.7997C414.73 0.450248 434.218 -3.98213 449.37 3.91123C463.089 11.06 465.927 20.6752 464.751 36.3397C479.646 27.824 490.52 25.3518 504.239 32.5007Z" fill="#FF879B"/>
</g>
<path d="M415.717 21.0707C424.518 7.82534 443.768 3.36561 458.867 11.0054C456.534 8.36338 453.433 6.02737 449.371 3.91123C434.219 -3.98213 414.731 0.450248 405.861 13.7997C391.821 34.9204 403.995 59.0019 414.876 90.4008L421.805 89.4305C411.885 61.9952 402.931 40.3044 415.717 21.0707Z" fill="#FF7190"/>
<path d="M453.115 110.683L419.212 130.868L375.717 163.389H351.905L386.919 131.851L411.439 110.683H453.115Z" fill="#B0B7DC"/>
<path d="M389.761 138.16L414.281 116.993H442.518L453.115 110.683H411.439L386.919 131.851L351.905 163.389H361.752L389.761 138.16Z" fill="#97A1C9"/>
<g filter="url(#filter3_d)">
<path d="M505.297 81.6582C523.496 90.5462 518.602 123.678 490.612 125.697L419.211 130.868L453.115 110.684H411.439L386.919 131.852L310.229 137.04L274.506 89.6045L321.294 103.501L414.876 90.4014L490.612 79.7974C496.545 78.9709 501.44 79.773 505.297 81.6582Z" fill="#D8EEFB"/>
</g>
<path d="M325.547 111.197L419.129 98.0981L494.866 87.4941C500.799 86.6681 505.694 87.4708 509.552 89.3555C511.749 90.4286 513.607 91.8578 515.13 93.5406C513.646 88.4957 510.37 84.1343 505.298 81.6575C501.441 79.7729 496.546 78.9702 490.612 79.7962L414.876 90.4001L321.294 103.5L274.506 89.6033L280.747 97.891L325.547 111.197Z" fill="#CCE4F0"/>
<path d="M494.791 94.2573H482.886V104.797H494.791V94.2573Z" fill="#B3D7E8"/>
<path d="M476.926 99.5267H465.021V110.067H476.926V99.5267Z" fill="#B3D7E8"/>
<path d="M375.717 110.067H363.811V120.607H375.717V110.067Z" fill="#B3D7E8"/>
<path d="M351.905 115.337H340V125.877H351.905V115.337Z" fill="#B3D7E8"/>
<path d="M372.162 89.0934C371.146 89.0934 370.323 88.3921 370.323 87.5271C370.323 83.6959 366.663 80.5787 362.165 80.5787C361.235 80.5787 360.316 80.714 359.432 80.9806C358.858 81.1541 358.219 81.0736 357.728 80.7657C357.237 80.4581 356.957 79.9628 356.98 79.4437C356.987 79.3009 356.994 79.158 356.994 79.0121C356.994 73.6158 351.837 69.2261 345.5 69.2261C341.031 69.2261 336.933 71.4634 335.058 74.9252C334.849 75.3124 334.463 75.6107 333.989 75.7497C333.515 75.8888 332.997 75.8581 332.55 75.6636C331.392 75.1586 330.144 74.9024 328.839 74.9024C327.823 74.9024 327 74.201 327 73.3361C327 72.4708 327.823 71.7698 328.839 71.7698C330.12 71.7698 331.365 71.9402 332.557 72.2779C335.292 68.478 340.198 66.0934 345.5 66.0934C353.28 66.0934 359.711 71.1059 360.573 77.5375C361.099 77.4764 361.63 77.4457 362.164 77.4457C368.691 77.4457 374 81.9683 374 87.5268C374.001 88.392 373.177 89.0934 372.162 89.0934Z" fill="#4DD0E2"/>
<path d="M338.084 163.094C337.024 163.094 336.166 162.331 336.166 161.391C336.166 157.227 332.351 153.838 327.662 153.838C326.692 153.838 325.734 153.985 324.813 154.275C324.214 154.464 323.548 154.376 323.036 154.042C322.524 153.707 322.232 153.169 322.256 152.605C322.263 152.449 322.27 152.294 322.27 152.135C322.27 146.27 316.894 141.499 310.287 141.499C305.628 141.499 301.355 143.93 299.401 147.693C299.183 148.114 298.78 148.438 298.287 148.589C297.793 148.741 297.252 148.707 296.787 148.496C295.579 147.947 294.277 147.668 292.917 147.668C291.859 147.668 291 146.906 291 145.966C291 145.025 291.859 144.263 292.917 144.263C294.253 144.263 295.55 144.449 296.793 144.816C299.644 140.685 304.759 138.094 310.287 138.094C318.398 138.094 325.103 143.542 326.002 150.533C326.55 150.466 327.104 150.433 327.661 150.433C334.465 150.433 340 155.349 340 161.391C340.001 162.331 339.142 163.094 338.084 163.094Z" fill="#4DD0E2"/>
<path d="M498.627 133.412C493.87 133.412 490 136.836 490 141.043C490 145.255 493.87 148.681 498.627 148.681C503.38 148.681 507.247 145.255 507.247 141.043C507.247 136.836 503.38 133.412 498.627 133.412Z" fill="#FFD15C"/>
<path d="M492.546 143.215C492.546 139.007 496.416 135.584 501.173 135.584C503.359 135.584 505.351 136.314 506.873 137.505C505.796 134.377 502.508 132.094 498.627 132.094C493.87 132.094 490 135.517 490 139.725C490 141.998 491.135 144.038 492.921 145.438C492.679 144.734 492.546 143.988 492.546 143.215Z" fill="#F7B64C"/>
<path d="M397.627 74.4123C392.87 74.4123 389 77.8355 389 82.0433C389 86.2546 392.87 89.6813 397.627 89.6813C402.38 89.6813 406.247 86.2546 406.247 82.0433C406.247 77.8355 402.38 74.4123 397.627 74.4123Z" fill="#FFD15C"/>
<path d="M391.546 84.2145C391.546 80.0067 395.416 76.5835 400.173 76.5835C402.359 76.5835 404.351 77.3135 405.873 78.5054C404.796 75.3765 401.508 73.0934 397.627 73.0934C392.87 73.0934 389 76.5166 389 80.7245C389 82.9982 390.135 85.0376 391.921 86.4377C391.679 85.7339 391.546 84.9882 391.546 84.2145Z" fill="#F7B64C"/>
<path d="M464.627 146.412C459.87 146.412 456 149.836 456 154.043C456 158.255 459.87 161.681 464.627 161.681C469.38 161.681 473.247 158.255 473.247 154.043C473.247 149.836 469.38 146.412 464.627 146.412Z" fill="#FFD15C"/>
<path d="M458.546 156.215C458.546 152.007 462.416 148.584 467.173 148.584C469.359 148.584 471.351 149.314 472.873 150.505C471.796 147.377 468.508 145.094 464.627 145.094C459.87 145.094 456 148.517 456 152.725C456 154.998 457.135 157.038 458.921 158.438C458.679 157.734 458.546 156.988 458.546 156.215Z" fill="#F7B64C"/>
<path d="M105.627 145.412C100.87 145.412 97 148.836 97 153.043C97 157.255 100.87 160.681 105.627 160.681C110.38 160.681 114.247 157.255 114.247 153.043C114.247 148.836 110.38 145.412 105.627 145.412Z" fill="#FFD15C"/>
<path d="M99.546 155.215C99.546 151.007 103.416 147.584 108.173 147.584C110.359 147.584 112.351 148.314 113.873 149.505C112.796 146.377 109.508 144.094 105.627 144.094C100.87 144.094 97 147.517 97 151.725C97 153.998 98.1347 156.038 99.9212 157.438C99.6788 156.734 99.546 155.988 99.546 155.215Z" fill="#F7B64C"/>
<path d="M135.627 158.412C130.87 158.412 127 161.836 127 166.043C127 170.255 130.87 173.681 135.627 173.681C140.38 173.681 144.247 170.255 144.247 166.043C144.247 161.836 140.38 158.412 135.627 158.412Z" fill="#FFD15C"/>
<path d="M129.546 168.215C129.546 164.007 133.416 160.584 138.173 160.584C140.359 160.584 142.351 161.314 143.873 162.505C142.796 159.377 139.508 157.094 135.627 157.094C130.87 157.094 127 160.517 127 164.725C127 166.998 128.135 169.038 129.921 170.438C129.679 169.734 129.546 168.988 129.546 168.215Z" fill="#F7B64C"/>
<path d="M203.136 141.917C203.584 142.621 203.968 143.581 204.288 144.797C204.672 145.949 204.864 147.165 204.864 148.445C204.864 150.941 204.32 152.733 203.232 153.821C202.208 154.845 200.8 155.357 199.008 155.357H178.848V166.205H199.872C200.384 166.909 200.8 167.837 201.12 168.989C201.504 170.141 201.696 171.357 201.696 172.637C201.696 175.069 201.152 176.829 200.064 177.917C199.04 178.941 197.632 179.453 195.84 179.453H179.04V199.709C178.336 199.901 177.216 200.093 175.68 200.285C174.208 200.477 172.736 200.573 171.264 200.573C169.792 200.573 168.48 200.445 167.328 200.189C166.24 199.997 165.312 199.613 164.544 199.037C163.776 198.461 163.2 197.661 162.816 196.637C162.432 195.613 162.24 194.269 162.24 192.605V150.845C162.24 148.093 163.04 145.917 164.64 144.317C166.24 142.717 168.416 141.917 171.168 141.917H203.136ZM228.6 199.997C227.896 200.125 226.84 200.285 225.432 200.477C224.088 200.733 222.712 200.861 221.304 200.861C219.896 200.861 218.616 200.765 217.464 200.573C216.376 200.381 215.448 199.997 214.68 199.421C213.912 198.845 213.304 198.077 212.856 197.117C212.472 196.093 212.28 194.781 212.28 193.181V137.501C212.984 137.373 214.008 137.213 215.352 137.021C216.76 136.765 218.168 136.637 219.576 136.637C220.984 136.637 222.232 136.733 223.32 136.925C224.472 137.117 225.432 137.501 226.2 138.077C226.968 138.653 227.544 139.453 227.928 140.477C228.376 141.437 228.6 142.717 228.6 144.317V199.997ZM238.514 140.477C238.514 138.045 239.314 135.997 240.914 134.333C242.578 132.669 244.754 131.837 247.442 131.837C250.13 131.837 252.274 132.669 253.874 134.333C255.538 135.997 256.37 138.045 256.37 140.477C256.37 142.909 255.538 144.957 253.874 146.621C252.274 148.285 250.13 149.117 247.442 149.117C244.754 149.117 242.578 148.285 240.914 146.621C239.314 144.957 238.514 142.909 238.514 140.477ZM255.602 199.997C254.898 200.125 253.842 200.285 252.434 200.477C251.09 200.733 249.714 200.861 248.306 200.861C246.898 200.861 245.618 200.765 244.466 200.573C243.378 200.381 242.45 199.997 241.682 199.421C240.914 198.845 240.306 198.077 239.858 197.117C239.474 196.093 239.282 194.781 239.282 193.181V154.109C239.986 153.981 241.01 153.821 242.354 153.629C243.762 153.373 245.17 153.245 246.578 153.245C247.986 153.245 249.234 153.341 250.322 153.533C251.474 153.725 252.434 154.109 253.202 154.685C253.97 155.261 254.546 156.061 254.93 157.085C255.378 158.045 255.602 159.325 255.602 160.925V199.997ZM288.744 151.997C292.392 151.997 295.688 152.477 298.632 153.437C301.64 154.333 304.168 155.517 306.216 156.989C307.496 157.885 308.488 158.877 309.192 159.965C309.96 161.053 310.344 162.461 310.344 164.189V197.789C310.344 201.181 309.704 204.093 308.424 206.525C307.144 209.021 305.384 211.069 303.144 212.669C300.968 214.333 298.376 215.549 295.368 216.317C292.424 217.085 289.256 217.469 285.864 217.469C280.04 217.469 275.464 216.669 272.136 215.069C268.808 213.533 267.144 211.005 267.144 207.485C267.144 206.013 267.432 204.701 268.008 203.549C268.648 202.461 269.352 201.629 270.12 201.053C271.976 202.077 274.056 202.941 276.36 203.645C278.728 204.349 281.16 204.701 283.656 204.701C287.112 204.701 289.864 204.125 291.912 202.973C293.96 201.821 294.984 199.965 294.984 197.405V195.869C292.36 197.021 289.16 197.597 285.384 197.597C282.504 197.597 279.752 197.181 277.128 196.349C274.568 195.453 272.296 194.109 270.312 192.317C268.392 190.461 266.824 188.093 265.608 185.213C264.456 182.333 263.88 178.909 263.88 174.941C263.88 171.037 264.488 167.645 265.704 164.765C266.984 161.885 268.712 159.517 270.888 157.661C273.128 155.741 275.752 154.333 278.76 153.437C281.832 152.477 285.16 151.997 288.744 151.997ZM294.696 165.917C294.248 165.661 293.576 165.405 292.68 165.149C291.848 164.893 290.792 164.765 289.512 164.765C286.376 164.765 284.008 165.661 282.408 167.453C280.872 169.181 280.104 171.677 280.104 174.941C280.104 178.653 280.872 181.341 282.408 183.005C284.008 184.605 286.024 185.405 288.456 185.405C291.08 185.405 293.16 184.797 294.696 183.581V165.917ZM366.541 199.997C365.901 200.189 364.877 200.381 363.469 200.573C362.125 200.765 360.717 200.861 359.245 200.861C357.837 200.861 356.557 200.765 355.405 200.573C354.317 200.381 353.389 199.997 352.621 199.421C351.853 198.845 351.245 198.077 350.797 197.117C350.413 196.093 350.221 194.781 350.221 193.181V171.869C350.221 169.245 349.549 167.421 348.205 166.397C346.925 165.309 345.325 164.765 343.405 164.765C342.125 164.765 340.909 164.925 339.757 165.245C338.605 165.565 337.677 165.949 336.973 166.397V199.997C336.333 200.189 335.309 200.381 333.901 200.573C332.557 200.765 331.149 200.861 329.677 200.861C328.269 200.861 326.989 200.765 325.837 200.573C324.749 200.381 323.821 199.997 323.053 199.421C322.285 198.845 321.677 198.077 321.229 197.117C320.845 196.093 320.653 194.781 320.653 193.181V137.501C321.357 137.373 322.381 137.213 323.725 137.021C325.133 136.765 326.541 136.637 327.949 136.637C329.357 136.637 330.605 136.733 331.693 136.925C332.845 137.117 333.805 137.501 334.573 138.077C335.341 138.653 335.917 139.453 336.301 140.477C336.749 141.437 336.973 142.717 336.973 144.317V153.725C337.805 153.405 339.053 153.053 340.717 152.669C342.445 152.221 344.333 151.997 346.381 151.997C352.717 151.997 357.645 153.597 361.165 156.797C364.749 159.933 366.541 164.637 366.541 170.909V199.997ZM392.937 184.061C392.937 185.725 393.449 186.909 394.473 187.613C395.561 188.317 397.065 188.669 398.985 188.669C399.945 188.669 400.937 188.605 401.961 188.477C402.985 188.285 403.881 188.061 404.649 187.805C405.225 188.509 405.705 189.309 406.089 190.205C406.537 191.037 406.761 192.061 406.761 193.277C406.761 195.709 405.833 197.693 403.977 199.229C402.185 200.765 398.985 201.533 394.377 201.533C388.745 201.533 384.393 200.253 381.321 197.693C378.313 195.133 376.809 190.973 376.809 185.213V144.125C377.513 143.933 378.505 143.741 379.785 143.549C381.129 143.293 382.537 143.165 384.009 143.165C386.825 143.165 389.001 143.677 390.537 144.701C392.137 145.661 392.937 147.741 392.937 150.941V157.085H405.513C405.897 157.789 406.249 158.685 406.569 159.773C406.953 160.797 407.145 161.949 407.145 163.229C407.145 165.469 406.633 167.101 405.609 168.125C404.649 169.085 403.337 169.565 401.673 169.565H392.937V184.061Z" fill="#FF7190"/>
<g filter="url(#filter4_d)">
<path d="M199.136 141.917C199.584 142.621 199.968 143.581 200.288 144.797C200.672 145.949 200.864 147.165 200.864 148.445C200.864 150.941 200.32 152.733 199.232 153.821C198.208 154.845 196.8 155.357 195.008 155.357H174.848V166.205H195.872C196.384 166.909 196.8 167.837 197.12 168.989C197.504 170.141 197.696 171.357 197.696 172.637C197.696 175.069 197.152 176.829 196.064 177.917C195.04 178.941 193.632 179.453 191.84 179.453H175.04V199.709C174.336 199.901 173.216 200.093 171.68 200.285C170.208 200.477 168.736 200.573 167.264 200.573C165.792 200.573 164.48 200.445 163.328 200.189C162.24 199.997 161.312 199.613 160.544 199.037C159.776 198.461 159.2 197.661 158.816 196.637C158.432 195.613 158.24 194.269 158.24 192.605V150.845C158.24 148.093 159.04 145.917 160.64 144.317C162.24 142.717 164.416 141.917 167.168 141.917H199.136ZM224.6 199.997C223.896 200.125 222.84 200.285 221.432 200.477C220.088 200.733 218.712 200.861 217.304 200.861C215.896 200.861 214.616 200.765 213.464 200.573C212.376 200.381 211.448 199.997 210.68 199.421C209.912 198.845 209.304 198.077 208.856 197.117C208.472 196.093 208.28 194.781 208.28 193.181V137.501C208.984 137.373 210.008 137.213 211.352 137.021C212.76 136.765 214.168 136.637 215.576 136.637C216.984 136.637 218.232 136.733 219.32 136.925C220.472 137.117 221.432 137.501 222.2 138.077C222.968 138.653 223.544 139.453 223.928 140.477C224.376 141.437 224.6 142.717 224.6 144.317V199.997ZM234.514 140.477C234.514 138.045 235.314 135.997 236.914 134.333C238.578 132.669 240.754 131.837 243.442 131.837C246.13 131.837 248.274 132.669 249.874 134.333C251.538 135.997 252.37 138.045 252.37 140.477C252.37 142.909 251.538 144.957 249.874 146.621C248.274 148.285 246.13 149.117 243.442 149.117C240.754 149.117 238.578 148.285 236.914 146.621C235.314 144.957 234.514 142.909 234.514 140.477ZM251.602 199.997C250.898 200.125 249.842 200.285 248.434 200.477C247.09 200.733 245.714 200.861 244.306 200.861C242.898 200.861 241.618 200.765 240.466 200.573C239.378 200.381 238.45 199.997 237.682 199.421C236.914 198.845 236.306 198.077 235.858 197.117C235.474 196.093 235.282 194.781 235.282 193.181V154.109C235.986 153.981 237.01 153.821 238.354 153.629C239.762 153.373 241.17 153.245 242.578 153.245C243.986 153.245 245.234 153.341 246.322 153.533C247.474 153.725 248.434 154.109 249.202 154.685C249.97 155.261 250.546 156.061 250.93 157.085C251.378 158.045 251.602 159.325 251.602 160.925V199.997ZM284.744 151.997C288.392 151.997 291.688 152.477 294.632 153.437C297.64 154.333 300.168 155.517 302.216 156.989C303.496 157.885 304.488 158.877 305.192 159.965C305.96 161.053 306.344 162.461 306.344 164.189V197.789C306.344 201.181 305.704 204.093 304.424 206.525C303.144 209.021 301.384 211.069 299.144 212.669C296.968 214.333 294.376 215.549 291.368 216.317C288.424 217.085 285.256 217.469 281.864 217.469C276.04 217.469 271.464 216.669 268.136 215.069C264.808 213.533 263.144 211.005 263.144 207.485C263.144 206.013 263.432 204.701 264.008 203.549C264.648 202.461 265.352 201.629 266.12 201.053C267.976 202.077 270.056 202.941 272.36 203.645C274.728 204.349 277.16 204.701 279.656 204.701C283.112 204.701 285.864 204.125 287.912 202.973C289.96 201.821 290.984 199.965 290.984 197.405V195.869C288.36 197.021 285.16 197.597 281.384 197.597C278.504 197.597 275.752 197.181 273.128 196.349C270.568 195.453 268.296 194.109 266.312 192.317C264.392 190.461 262.824 188.093 261.608 185.213C260.456 182.333 259.88 178.909 259.88 174.941C259.88 171.037 260.488 167.645 261.704 164.765C262.984 161.885 264.712 159.517 266.888 157.661C269.128 155.741 271.752 154.333 274.76 153.437C277.832 152.477 281.16 151.997 284.744 151.997ZM290.696 165.917C290.248 165.661 289.576 165.405 288.68 165.149C287.848 164.893 286.792 164.765 285.512 164.765C282.376 164.765 280.008 165.661 278.408 167.453C276.872 169.181 276.104 171.677 276.104 174.941C276.104 178.653 276.872 181.341 278.408 183.005C280.008 184.605 282.024 185.405 284.456 185.405C287.08 185.405 289.16 184.797 290.696 183.581V165.917ZM362.541 199.997C361.901 200.189 360.877 200.381 359.469 200.573C358.125 200.765 356.717 200.861 355.245 200.861C353.837 200.861 352.557 200.765 351.405 200.573C350.317 200.381 349.389 199.997 348.621 199.421C347.853 198.845 347.245 198.077 346.797 197.117C346.413 196.093 346.221 194.781 346.221 193.181V171.869C346.221 169.245 345.549 167.421 344.205 166.397C342.925 165.309 341.325 164.765 339.405 164.765C338.125 164.765 336.909 164.925 335.757 165.245C334.605 165.565 333.677 165.949 332.973 166.397V199.997C332.333 200.189 331.309 200.381 329.901 200.573C328.557 200.765 327.149 200.861 325.677 200.861C324.269 200.861 322.989 200.765 321.837 200.573C320.749 200.381 319.821 199.997 319.053 199.421C318.285 198.845 317.677 198.077 317.229 197.117C316.845 196.093 316.653 194.781 316.653 193.181V137.501C317.357 137.373 318.381 137.213 319.725 137.021C321.133 136.765 322.541 136.637 323.949 136.637C325.357 136.637 326.605 136.733 327.693 136.925C328.845 137.117 329.805 137.501 330.573 138.077C331.341 138.653 331.917 139.453 332.301 140.477C332.749 141.437 332.973 142.717 332.973 144.317V153.725C333.805 153.405 335.053 153.053 336.717 152.669C338.445 152.221 340.333 151.997 342.381 151.997C348.717 151.997 353.645 153.597 357.165 156.797C360.749 159.933 362.541 164.637 362.541 170.909V199.997ZM388.937 184.061C388.937 185.725 389.449 186.909 390.473 187.613C391.561 188.317 393.065 188.669 394.985 188.669C395.945 188.669 396.937 188.605 397.961 188.477C398.985 188.285 399.881 188.061 400.649 187.805C401.225 188.509 401.705 189.309 402.089 190.205C402.537 191.037 402.761 192.061 402.761 193.277C402.761 195.709 401.833 197.693 399.977 199.229C398.185 200.765 394.985 201.533 390.377 201.533C384.745 201.533 380.393 200.253 377.321 197.693C374.313 195.133 372.809 190.973 372.809 185.213V144.125C373.513 143.933 374.505 143.741 375.785 143.549C377.129 143.293 378.537 143.165 380.009 143.165C382.825 143.165 385.001 143.677 386.537 144.701C388.137 145.661 388.937 147.741 388.937 150.941V157.085H401.513C401.897 157.789 402.249 158.685 402.569 159.773C402.953 160.797 403.145 161.949 403.145 163.229C403.145 165.469 402.633 167.101 401.609 168.125C400.649 169.085 399.337 169.565 397.673 169.565H388.937V184.061Z" fill="#FF879B"/>
</g>
<defs>
<filter id="filter0_d" x="230" y="33.0934" width="220" height="220" filterUnits="userSpaceOnUse" color-interpolation-filters="sRGB">
<feFlood flood-opacity="0" result="BackgroundImageFix"/>
<feColorMatrix in="SourceAlpha" type="matrix" values="0 0 0 0 0 0 0 0 0 0 0 0 0 0 0 0 0 0 127 0"/>
<feOffset dy="4"/>
<feGaussianBlur stdDeviation="2"/>
<feColorMatrix type="matrix" values="0 0 0 0 0 0 0 0 0 0 0 0 0 0 0 0 0 0 0.25 0"/>
<feBlend mode="normal" in2="BackgroundImageFix" result="effect1_dropShadow"/>
<feBlend mode="normal" in="SourceGraphic" in2="effect1_dropShadow" result="shape"/>
</filter>
<filter id="filter1_d" x="0.840027" y="71.2855" width="272.93" height="69.344" filterUnits="userSpaceOnUse" color-interpolation-filters="sRGB">
<feFlood flood-opacity="0" result="BackgroundImageFix"/>
<feColorMatrix in="SourceAlpha" type="matrix" values="0 0 0 0 0 0 0 0 0 0 0 0 0 0 0 0 0 0 127 0"/>
<feOffset dy="4"/>
<feGaussianBlur stdDeviation="2"/>
<feColorMatrix type="matrix" values="0 0 0 0 0 0 0 0 0 0 0 0 0 0 0 0 0 0 0.25 0"/>
<feBlend mode="normal" in2="BackgroundImageFix" result="effect1_dropShadow"/>
<feBlend mode="normal" in="SourceGraphic" in2="effect1_dropShadow" result="shape"/>
</filter>
<filter id="filter2_d" x="395.533" y="0" width="128.467" height="98.4008" filterUnits="userSpaceOnUse" color-interpolation-filters="sRGB">
<feFlood flood-opacity="0" result="BackgroundImageFix"/>
<feColorMatrix in="SourceAlpha" type="matrix" values="0 0 0 0 0 0 0 0 0 0 0 0 0 0 0 0 0 0 127 0"/>
<feOffset dy="4"/>
<feGaussianBlur stdDeviation="2"/>
<feColorMatrix type="matrix" values="0 0 0 0 0 0 0 0 0 0 0 0 0 0 0 0 0 0 0.25 0"/>
<feBlend mode="normal" in2="BackgroundImageFix" result="effect1_dropShadow"/>
<feBlend mode="normal" in="SourceGraphic" in2="effect1_dropShadow" result="shape"/>
</filter>
<filter id="filter3_d" x="270.506" y="79.4733" width="249.548" height="65.567" filterUnits="userSpaceOnUse" color-interpolation-filters="sRGB">
<feFlood flood-opacity="0" result="BackgroundImageFix"/>
<feColorMatrix in="SourceAlpha" type="matrix" values="0 0 0 0 0 0 0 0 0 0 0 0 0 0 0 0 0 0 127 0"/>
<feOffset dy="4"/>
<feGaussianBlur stdDeviation="2"/>
<feColorMatrix type="matrix" values="0 0 0 0 0 0 0 0 0 0 0 0 0 0 0 0 0 0 0.25 0"/>
<feBlend mode="normal" in2="BackgroundImageFix" result="effect1_dropShadow"/>
<feBlend mode="normal" in="SourceGraphic" in2="effect1_dropShadow" result="shape"/>
</filter>
<filter id="filter4_d" x="154.24" y="131.837" width="252.905" height="93.632" filterUnits="userSpaceOnUse" color-interpolation-filters="sRGB">
<feFlood flood-opacity="0" result="BackgroundImageFix"/>
<feColorMatrix in="SourceAlpha" type="matrix" values="0 0 0 0 0 0 0 0 0 0 0 0 0 0 0 0 0 0 127 0"/>
<feOffset dy="4"/>
<feGaussianBlur stdDeviation="2"/>
<feColorMatrix type="matrix" values="0 0 0 0 0 0 0 0 0 0 0 0 0 0 0 0 0 0 0.25 0"/>
<feBlend mode="normal" in2="BackgroundImageFix" result="effect1_dropShadow"/>
<feBlend mode="normal" in="SourceGraphic" in2="effect1_dropShadow" result="shape"/>
</filter>
</defs>
</svg>
