<svg width="478" height="223" viewBox="0 0 478 223" fill="none" xmlns="http://www.w3.org/2000/svg">
<g filter="url(#filter0_d)">
<path d="M340 215C398.542 215 446 167.542 446 109C446 50.4578 398.542 3 340 3C281.458 3 234 50.4578 234 109C234 167.542 281.458 215 340 215Z" fill="#AAE0E7"/>
</g>
<g filter="url(#filter1_d)">
<path d="M463.42 42.8475C473.613 48.8415 477.027 61.91 471.073 72.0322C469.172 75.2603 466.838 77.9067 464.131 80.1212C461.542 78.6922 458.256 78.0835 454.273 78.7098L403.432 86.7503C396.128 62.9421 387.955 44.6819 397.38 28.6676C403.335 18.5453 416.416 15.1845 426.588 21.1696C435.797 26.5902 437.702 33.8809 436.913 45.7585C446.911 39.3014 454.211 37.4269 463.42 42.8475Z" fill="#FF879B"/>
</g>
<path d="M403.997 34.1808C409.905 24.1375 422.827 20.7559 432.963 26.5487C431.397 24.5454 429.315 22.7742 426.588 21.1696C416.417 15.1845 403.335 18.5453 397.381 28.6676C387.956 44.6823 396.128 62.9421 403.433 86.7503L408.084 86.0146C401.424 65.2117 395.414 48.7647 403.997 34.1808Z" fill="#FF7190"/>
<path d="M429.102 102.13L406.343 117.434L377.146 142.094H361.161L384.665 118.18L401.125 102.13H429.102Z" fill="#B0B7DC"/>
<path d="M386.573 122.964L403.033 106.914H421.988L429.102 102.13H401.125L384.665 118.18L361.161 142.094H367.771L386.573 122.964Z" fill="#97A1C9"/>
<g filter="url(#filter2_d)">
<path d="M464.13 80.1212C476.347 86.8605 473.062 111.983 454.272 113.514L406.343 117.435L429.101 102.13H401.125L384.665 118.18L333.185 122.115L309.205 86.1465L340.612 96.6833L403.432 86.7507L454.273 78.7103C458.255 78.0835 461.541 78.6917 464.13 80.1212Z" fill="#D8EEFB"/>
</g>
<path d="M343.468 102.519L406.288 92.5868L457.128 84.5463C461.111 83.92 464.397 84.5287 466.986 85.9577C468.461 86.7714 469.708 87.8551 470.731 89.1311C469.735 85.3058 467.536 81.9988 464.131 80.1208C461.542 78.6917 458.256 78.0831 454.273 78.7094L403.432 86.7498L340.612 96.6824L309.205 86.1456L313.394 92.4298L343.468 102.519Z" fill="#CCE4F0"/>
<path d="M457.078 89.6745H449.086V97.666H457.078V89.6745Z" fill="#B3D7E8"/>
<path d="M445.085 93.67H437.094V101.662H445.085V93.67Z" fill="#B3D7E8"/>
<path d="M377.146 101.662H369.154V109.654H377.146V101.662Z" fill="#B3D7E8"/>
<path d="M361.161 105.658H353.169V113.65H361.161V105.658Z" fill="#B3D7E8"/>
<path d="M381.141 48.3828C379.923 48.3828 378.936 47.3953 378.936 46.1775C378.936 40.7834 374.547 36.3944 369.153 36.3944C368.038 36.3944 366.936 36.585 365.876 36.9603C365.188 37.2047 364.422 37.0913 363.832 36.6578C363.244 36.2246 362.907 35.5273 362.936 34.7965C362.944 34.5954 362.952 34.3943 362.952 34.1887C362.952 26.5911 356.768 20.4106 349.169 20.4106C343.81 20.4106 338.895 23.5606 336.647 28.4347C336.396 28.9798 335.932 29.3997 335.365 29.5956C334.797 29.7914 334.174 29.7482 333.639 29.4743C332.25 28.7633 330.753 28.4025 329.189 28.4025C327.971 28.4025 326.983 27.415 326.983 26.1972C326.983 24.979 327.971 23.9919 329.189 23.9919C330.725 23.9919 332.217 24.2319 333.647 24.7073C336.927 19.3573 342.81 16 349.168 16C358.498 16 366.21 23.0573 367.244 32.1127C367.875 32.0267 368.512 31.9834 369.152 31.9834C376.978 31.9834 383.346 38.351 383.346 46.1771C383.346 47.3953 382.359 48.3828 381.141 48.3828Z" fill="#4DD0E2"/>
<path d="M340.158 202.383C338.94 202.383 337.952 201.395 337.952 200.178C337.952 194.783 333.564 190.394 328.17 190.394C327.055 190.394 325.952 190.585 324.893 190.96C324.204 191.205 323.438 191.091 322.849 190.658C322.26 190.225 321.924 189.527 321.952 188.797C321.96 188.595 321.968 188.394 321.968 188.189C321.968 180.591 315.785 174.411 308.185 174.411C302.826 174.411 297.911 177.561 295.664 182.435C295.412 182.98 294.949 183.4 294.381 183.596C293.813 183.791 293.191 183.748 292.656 183.474C291.267 182.763 289.77 182.403 288.205 182.403C286.988 182.403 286 181.415 286 180.197C286 178.979 286.988 177.992 288.205 177.992C289.742 177.992 291.234 178.232 292.664 178.707C295.943 173.357 301.826 170 308.185 170C317.514 170 325.227 177.057 326.261 186.113C326.892 186.027 327.529 185.983 328.169 185.983C335.995 185.983 342.362 192.351 342.362 200.177C342.363 201.395 341.376 202.383 340.158 202.383Z" fill="#4DD0E2"/>
<path d="M285.791 111C282.598 111 280 113.596 280 116.786C280 119.979 282.598 122.578 285.791 122.578C288.982 122.578 291.578 119.979 291.578 116.786C291.578 113.596 288.982 111 285.791 111Z" fill="#FFD15C"/>
<path d="M281.709 118.433C281.709 115.242 284.307 112.646 287.5 112.646C288.968 112.646 290.305 113.2 291.326 114.104C290.603 111.731 288.396 110 285.791 110C282.598 110 280 112.596 280 115.786C280 117.51 280.762 119.057 281.961 120.118C281.798 119.585 281.709 119.019 281.709 118.433Z" fill="#F7B64C"/>
<path d="M390.791 74C387.598 74 385 76.5956 385 79.7862C385 82.9795 387.598 85.5777 390.791 85.5777C393.982 85.5777 396.578 82.9795 396.578 79.7862C396.578 76.5956 393.982 74 390.791 74Z" fill="#FFD15C"/>
<path d="M386.709 81.4326C386.709 78.2419 389.307 75.6463 392.5 75.6463C393.968 75.6463 395.305 76.1999 396.326 77.1036C395.603 74.7311 393.396 73 390.791 73C387.598 73 385 75.5956 385 78.7862C385 80.5103 385.762 82.0566 386.961 83.1183C386.798 82.5846 386.709 82.0192 386.709 81.4326Z" fill="#F7B64C"/>
<path d="M26.752 78.864C23.936 77.904 21.376 76.944 19.072 75.984C16.768 74.96 14.784 73.744 13.12 72.336C11.456 70.928 10.144 69.264 9.184 67.344C8.288 65.36 7.84 62.96 7.84 60.144C7.84 54.704 9.92 50.352 14.08 47.088C18.304 43.824 24.192 42.192 31.744 42.192C34.496 42.192 37.056 42.384 39.424 42.768C41.792 43.152 43.808 43.76 45.472 44.592C47.2 45.36 48.544 46.384 49.504 47.664C50.464 48.88 50.944 50.32 50.944 51.984C50.944 53.648 50.56 55.088 49.792 56.304C49.024 57.456 48.096 58.448 47.008 59.28C45.6 58.384 43.712 57.616 41.344 56.976C38.976 56.272 36.384 55.92 33.568 55.92C30.688 55.92 28.576 56.336 27.232 57.168C25.888 57.936 25.216 58.928 25.216 60.144C25.216 61.104 25.632 61.904 26.464 62.544C27.296 63.12 28.544 63.664 30.208 64.176L35.296 65.808C41.312 67.728 45.92 70.192 49.12 73.2C52.384 76.144 54.016 80.176 54.016 85.296C54.016 90.736 51.872 95.152 47.584 98.544C43.296 101.872 36.992 103.536 28.672 103.536C25.728 103.536 22.976 103.28 20.416 102.768C17.92 102.32 15.712 101.648 13.792 100.752C11.936 99.792 10.464 98.64 9.376 97.296C8.352 95.888 7.84 94.288 7.84 92.496C7.84 90.64 8.384 89.072 9.472 87.792C10.56 86.448 11.744 85.424 13.024 84.72C14.816 86.128 16.992 87.344 19.552 88.368C22.176 89.392 25.024 89.904 28.096 89.904C31.232 89.904 33.44 89.424 34.72 88.464C36 87.504 36.64 86.384 36.64 85.104C36.64 83.824 36.128 82.864 35.104 82.224C34.08 81.52 32.64 80.848 30.784 80.208L26.752 78.864ZM87.5215 100.56C86.6255 101.328 85.4095 101.936 83.8735 102.384C82.3375 102.896 80.5135 103.152 78.4015 103.152C75.7775 103.152 73.5055 102.768 71.5855 102C69.6655 101.296 68.3855 100.272 67.7455 98.928C67.0415 97.392 66.2095 94.96 65.2495 91.632C64.3535 88.304 63.4575 84.656 62.5615 80.688C61.6655 76.72 60.8015 72.688 59.9695 68.592C59.2015 64.496 58.5935 60.88 58.1455 57.744C59.0415 56.848 60.2255 56.08 61.6975 55.44C63.2335 54.736 64.8975 54.384 66.6895 54.384C68.9295 54.384 70.7535 54.896 72.1615 55.92C73.6335 56.88 74.5295 58.576 74.8495 61.008C75.4895 65.872 76.0335 69.904 76.4815 73.104C76.9295 76.24 77.2815 78.832 77.5375 80.88C77.8575 82.864 78.0815 84.4 78.2095 85.488C78.4015 86.512 78.5615 87.344 78.6895 87.984H79.0735C79.2655 86.96 79.5855 85.488 80.0335 83.568C80.5455 81.584 81.1215 79.344 81.7615 76.848C82.4015 74.352 83.0735 71.664 83.7775 68.784C84.4815 65.84 85.1855 62.928 85.8895 60.048C87.1695 59.344 88.4175 58.8 89.6335 58.416C90.9135 58.032 92.4815 57.84 94.3375 57.84C96.5775 57.84 98.4975 58.192 100.098 58.896C101.698 59.6 102.722 60.688 103.17 62.16C103.938 64.976 104.674 67.728 105.378 70.416C106.082 73.04 106.722 75.504 107.298 77.808C107.874 80.048 108.386 82.064 108.833 83.856C109.282 85.584 109.602 86.96 109.794 87.984H110.274C110.978 83.056 111.65 77.936 112.29 72.624C112.994 67.312 113.634 61.904 114.21 56.4C115.362 55.696 116.578 55.184 117.858 54.864C119.138 54.544 120.418 54.384 121.698 54.384C123.938 54.384 125.794 54.864 127.266 55.824C128.738 56.784 129.474 58.448 129.474 60.816C129.474 61.84 129.314 63.376 128.994 65.424C128.674 67.472 128.258 69.776 127.746 72.336C127.234 74.896 126.626 77.584 125.922 80.4C125.282 83.216 124.61 85.936 123.906 88.56C123.266 91.184 122.626 93.552 121.986 95.664C121.41 97.776 120.898 99.408 120.45 100.56C119.554 101.328 118.178 101.936 116.322 102.384C114.466 102.896 112.482 103.152 110.37 103.152C104.994 103.152 101.826 101.808 100.866 99.12C100.482 97.968 100.002 96.528 99.4255 94.8C98.8495 93.008 98.2415 91.056 97.6015 88.944C96.9615 86.832 96.3535 84.656 95.7775 82.416C95.2015 80.112 94.7215 77.904 94.3375 75.792C93.8895 78.032 93.3455 80.368 92.7055 82.8C92.0655 85.168 91.3935 87.504 90.6895 89.808C90.0495 92.048 89.4415 94.128 88.8655 96.048C88.2895 97.904 87.8415 99.408 87.5215 100.56ZM161.539 103.536C157.763 103.536 154.243 103.024 150.979 102C147.779 100.912 144.963 99.312 142.531 97.2C140.163 95.088 138.275 92.432 136.867 89.232C135.523 86.032 134.851 82.288 134.851 78C134.851 73.776 135.523 70.16 136.867 67.152C138.275 64.08 140.099 61.584 142.339 59.664C144.579 57.68 147.139 56.24 150.019 55.344C152.899 54.384 155.843 53.904 158.851 53.904C162.243 53.904 165.315 54.416 168.067 55.44C170.883 56.464 173.283 57.872 175.267 59.664C177.315 61.456 178.883 63.6 179.971 66.096C181.123 68.592 181.699 71.312 181.699 74.256C181.699 76.432 181.091 78.096 179.875 79.248C178.659 80.4 176.963 81.136 174.787 81.456L151.075 85.008C151.779 87.12 153.219 88.72 155.395 89.808C157.571 90.832 160.067 91.344 162.883 91.344C165.507 91.344 167.971 91.024 170.275 90.384C172.643 89.68 174.563 88.88 176.035 87.984C177.059 88.624 177.923 89.52 178.627 90.672C179.331 91.824 179.683 93.04 179.683 94.32C179.683 97.2 178.339 99.344 175.651 100.752C173.603 101.84 171.299 102.576 168.739 102.96C166.179 103.344 163.779 103.536 161.539 103.536ZM158.851 65.808C157.315 65.808 155.971 66.064 154.819 66.576C153.731 67.088 152.835 67.76 152.131 68.592C151.427 69.36 150.883 70.256 150.499 71.28C150.179 72.24 149.987 73.232 149.923 74.256L166.339 71.568C166.147 70.288 165.443 69.008 164.227 67.728C163.011 66.448 161.219 65.808 158.851 65.808ZM214.227 103.536C210.451 103.536 206.931 103.024 203.667 102C200.467 100.912 197.651 99.312 195.219 97.2C192.851 95.088 190.963 92.432 189.555 89.232C188.211 86.032 187.539 82.288 187.539 78C187.539 73.776 188.211 70.16 189.555 67.152C190.963 64.08 192.787 61.584 195.027 59.664C197.267 57.68 199.827 56.24 202.707 55.344C205.587 54.384 208.531 53.904 211.539 53.904C214.931 53.904 218.003 54.416 220.755 55.44C223.571 56.464 225.971 57.872 227.955 59.664C230.003 61.456 231.571 63.6 232.659 66.096C233.811 68.592 234.387 71.312 234.387 74.256C234.387 76.432 233.779 78.096 232.562 79.248C231.347 80.4 229.651 81.136 227.475 81.456L203.763 85.008C204.467 87.12 205.907 88.72 208.083 89.808C210.259 90.832 212.755 91.344 215.571 91.344C218.195 91.344 220.659 91.024 222.963 90.384C225.331 89.68 227.251 88.88 228.723 87.984C229.747 88.624 230.611 89.52 231.315 90.672C232.019 91.824 232.371 93.04 232.371 94.32C232.371 97.2 231.027 99.344 228.339 100.752C226.291 101.84 223.987 102.576 221.427 102.96C218.867 103.344 216.467 103.536 214.227 103.536ZM211.539 65.808C210.003 65.808 208.659 66.064 207.507 66.576C206.419 67.088 205.523 67.76 204.819 68.592C204.115 69.36 203.571 70.256 203.187 71.28C202.867 72.24 202.675 73.232 202.611 74.256L219.027 71.568C218.835 70.288 218.131 69.008 216.915 67.728C215.699 66.448 213.907 65.808 211.539 65.808ZM258.562 85.968C258.562 87.632 259.074 88.816 260.098 89.52C261.186 90.224 262.69 90.576 264.61 90.576C265.57 90.576 266.562 90.512 267.586 90.384C268.61 90.192 269.506 89.968 270.274 89.712C270.85 90.416 271.33 91.216 271.714 92.112C272.162 92.944 272.386 93.968 272.386 95.184C272.386 97.616 271.458 99.6 269.602 101.136C267.81 102.672 264.61 103.44 260.002 103.44C254.37 103.44 250.018 102.16 246.946 99.6C243.938 97.04 242.434 92.88 242.434 87.12V46.032C243.138 45.84 244.13 45.648 245.41 45.456C246.754 45.2 248.162 45.072 249.634 45.072C252.45 45.072 254.626 45.584 256.162 46.608C257.762 47.568 258.562 49.648 258.562 52.848V58.992H271.138C271.522 59.696 271.874 60.592 272.194 61.68C272.578 62.704 272.77 63.856 272.77 65.136C272.77 67.376 272.258 69.008 271.234 70.032C270.274 70.992 268.962 71.472 267.298 71.472H258.562V85.968Z" fill="#7D90F8"/>
<g filter="url(#filter3_d)">
<path d="M23.752 77.864C20.936 76.904 18.376 75.944 16.072 74.984C13.768 73.96 11.784 72.744 10.12 71.336C8.456 69.928 7.144 68.264 6.184 66.344C5.288 64.36 4.84 61.96 4.84 59.144C4.84 53.704 6.92 49.352 11.08 46.088C15.304 42.824 21.192 41.192 28.744 41.192C31.496 41.192 34.056 41.384 36.424 41.768C38.792 42.152 40.808 42.76 42.472 43.592C44.2 44.36 45.544 45.384 46.504 46.664C47.464 47.88 47.944 49.32 47.944 50.984C47.944 52.648 47.56 54.088 46.792 55.304C46.024 56.456 45.096 57.448 44.008 58.28C42.6 57.384 40.712 56.616 38.344 55.976C35.976 55.272 33.384 54.92 30.568 54.92C27.688 54.92 25.576 55.336 24.232 56.168C22.888 56.936 22.216 57.928 22.216 59.144C22.216 60.104 22.632 60.904 23.464 61.544C24.296 62.12 25.544 62.664 27.208 63.176L32.296 64.808C38.312 66.728 42.92 69.192 46.12 72.2C49.384 75.144 51.016 79.176 51.016 84.296C51.016 89.736 48.872 94.152 44.584 97.544C40.296 100.872 33.992 102.536 25.672 102.536C22.728 102.536 19.976 102.28 17.416 101.768C14.92 101.32 12.712 100.648 10.792 99.752C8.936 98.792 7.464 97.64 6.376 96.296C5.352 94.888 4.84 93.288 4.84 91.496C4.84 89.64 5.384 88.072 6.472 86.792C7.56 85.448 8.744 84.424 10.024 83.72C11.816 85.128 13.992 86.344 16.552 87.368C19.176 88.392 22.024 88.904 25.096 88.904C28.232 88.904 30.44 88.424 31.72 87.464C33 86.504 33.64 85.384 33.64 84.104C33.64 82.824 33.128 81.864 32.104 81.224C31.08 80.52 29.64 79.848 27.784 79.208L23.752 77.864ZM84.5215 99.56C83.6255 100.328 82.4095 100.936 80.8735 101.384C79.3375 101.896 77.5135 102.152 75.4015 102.152C72.7775 102.152 70.5055 101.768 68.5855 101C66.6655 100.296 65.3855 99.272 64.7455 97.928C64.0415 96.392 63.2095 93.96 62.2495 90.632C61.3535 87.304 60.4575 83.656 59.5615 79.688C58.6655 75.72 57.8015 71.688 56.9695 67.592C56.2015 63.496 55.5935 59.88 55.1455 56.744C56.0415 55.848 57.2255 55.08 58.6975 54.44C60.2335 53.736 61.8975 53.384 63.6895 53.384C65.9295 53.384 67.7535 53.896 69.1615 54.92C70.6335 55.88 71.5295 57.576 71.8495 60.008C72.4895 64.872 73.0335 68.904 73.4815 72.104C73.9295 75.24 74.2815 77.832 74.5375 79.88C74.8575 81.864 75.0815 83.4 75.2095 84.488C75.4015 85.512 75.5615 86.344 75.6895 86.984H76.0735C76.2655 85.96 76.5855 84.488 77.0335 82.568C77.5455 80.584 78.1215 78.344 78.7615 75.848C79.4015 73.352 80.0735 70.664 80.7775 67.784C81.4815 64.84 82.1855 61.928 82.8895 59.048C84.1695 58.344 85.4175 57.8 86.6335 57.416C87.9135 57.032 89.4815 56.84 91.3375 56.84C93.5775 56.84 95.4975 57.192 97.0975 57.896C98.6975 58.6 99.7215 59.688 100.17 61.16C100.938 63.976 101.674 66.728 102.378 69.416C103.082 72.04 103.722 74.504 104.298 76.808C104.874 79.048 105.386 81.064 105.833 82.856C106.282 84.584 106.602 85.96 106.794 86.984H107.274C107.978 82.056 108.65 76.936 109.29 71.624C109.994 66.312 110.634 60.904 111.21 55.4C112.362 54.696 113.578 54.184 114.858 53.864C116.138 53.544 117.418 53.384 118.698 53.384C120.938 53.384 122.794 53.864 124.266 54.824C125.738 55.784 126.474 57.448 126.474 59.816C126.474 60.84 126.314 62.376 125.994 64.424C125.674 66.472 125.258 68.776 124.746 71.336C124.234 73.896 123.626 76.584 122.922 79.4C122.282 82.216 121.61 84.936 120.906 87.56C120.266 90.184 119.626 92.552 118.986 94.664C118.41 96.776 117.898 98.408 117.45 99.56C116.554 100.328 115.178 100.936 113.322 101.384C111.466 101.896 109.482 102.152 107.37 102.152C101.994 102.152 98.8255 100.808 97.8655 98.12C97.4815 96.968 97.0015 95.528 96.4255 93.8C95.8495 92.008 95.2415 90.056 94.6015 87.944C93.9615 85.832 93.3535 83.656 92.7775 81.416C92.2015 79.112 91.7215 76.904 91.3375 74.792C90.8895 77.032 90.3455 79.368 89.7055 81.8C89.0655 84.168 88.3935 86.504 87.6895 88.808C87.0495 91.048 86.4415 93.128 85.8655 95.048C85.2895 96.904 84.8415 98.408 84.5215 99.56ZM158.539 102.536C154.763 102.536 151.243 102.024 147.979 101C144.779 99.912 141.963 98.312 139.531 96.2C137.163 94.088 135.275 91.432 133.867 88.232C132.523 85.032 131.851 81.288 131.851 77C131.851 72.776 132.523 69.16 133.867 66.152C135.275 63.08 137.099 60.584 139.339 58.664C141.579 56.68 144.139 55.24 147.019 54.344C149.899 53.384 152.843 52.904 155.851 52.904C159.243 52.904 162.315 53.416 165.067 54.44C167.883 55.464 170.283 56.872 172.267 58.664C174.315 60.456 175.883 62.6 176.971 65.096C178.123 67.592 178.699 70.312 178.699 73.256C178.699 75.432 178.091 77.096 176.875 78.248C175.659 79.4 173.963 80.136 171.787 80.456L148.075 84.008C148.779 86.12 150.219 87.72 152.395 88.808C154.571 89.832 157.067 90.344 159.883 90.344C162.507 90.344 164.971 90.024 167.275 89.384C169.643 88.68 171.563 87.88 173.035 86.984C174.059 87.624 174.923 88.52 175.627 89.672C176.331 90.824 176.683 92.04 176.683 93.32C176.683 96.2 175.339 98.344 172.651 99.752C170.603 100.84 168.299 101.576 165.739 101.96C163.179 102.344 160.779 102.536 158.539 102.536ZM155.851 64.808C154.315 64.808 152.971 65.064 151.819 65.576C150.731 66.088 149.835 66.76 149.131 67.592C148.427 68.36 147.883 69.256 147.499 70.28C147.179 71.24 146.987 72.232 146.923 73.256L163.339 70.568C163.147 69.288 162.443 68.008 161.227 66.728C160.011 65.448 158.219 64.808 155.851 64.808ZM211.227 102.536C207.451 102.536 203.931 102.024 200.667 101C197.467 99.912 194.651 98.312 192.219 96.2C189.851 94.088 187.963 91.432 186.555 88.232C185.211 85.032 184.539 81.288 184.539 77C184.539 72.776 185.211 69.16 186.555 66.152C187.963 63.08 189.787 60.584 192.027 58.664C194.267 56.68 196.827 55.24 199.707 54.344C202.587 53.384 205.531 52.904 208.539 52.904C211.931 52.904 215.003 53.416 217.755 54.44C220.571 55.464 222.971 56.872 224.955 58.664C227.003 60.456 228.571 62.6 229.659 65.096C230.811 67.592 231.387 70.312 231.387 73.256C231.387 75.432 230.779 77.096 229.562 78.248C228.347 79.4 226.651 80.136 224.475 80.456L200.763 84.008C201.467 86.12 202.907 87.72 205.083 88.808C207.259 89.832 209.755 90.344 212.571 90.344C215.195 90.344 217.659 90.024 219.963 89.384C222.331 88.68 224.251 87.88 225.723 86.984C226.747 87.624 227.611 88.52 228.315 89.672C229.019 90.824 229.371 92.04 229.371 93.32C229.371 96.2 228.027 98.344 225.339 99.752C223.291 100.84 220.987 101.576 218.427 101.96C215.867 102.344 213.467 102.536 211.227 102.536ZM208.539 64.808C207.003 64.808 205.659 65.064 204.507 65.576C203.419 66.088 202.523 66.76 201.819 67.592C201.115 68.36 200.571 69.256 200.187 70.28C199.867 71.24 199.675 72.232 199.611 73.256L216.027 70.568C215.835 69.288 215.131 68.008 213.915 66.728C212.699 65.448 210.907 64.808 208.539 64.808ZM255.562 84.968C255.562 86.632 256.074 87.816 257.098 88.52C258.186 89.224 259.69 89.576 261.61 89.576C262.57 89.576 263.562 89.512 264.586 89.384C265.61 89.192 266.506 88.968 267.274 88.712C267.85 89.416 268.33 90.216 268.714 91.112C269.162 91.944 269.386 92.968 269.386 94.184C269.386 96.616 268.458 98.6 266.602 100.136C264.81 101.672 261.61 102.44 257.002 102.44C251.37 102.44 247.018 101.16 243.946 98.6C240.938 96.04 239.434 91.88 239.434 86.12V45.032C240.138 44.84 241.13 44.648 242.41 44.456C243.754 44.2 245.162 44.072 246.634 44.072C249.45 44.072 251.626 44.584 253.162 45.608C254.762 46.568 255.562 48.648 255.562 51.848V57.992H268.138C268.522 58.696 268.874 59.592 269.194 60.68C269.578 61.704 269.77 62.856 269.77 64.136C269.77 66.376 269.258 68.008 268.234 69.032C267.274 69.992 265.962 70.472 264.298 70.472H255.562V84.968Z" fill="#B0B7DC"/>
</g>
<path d="M235.136 111.824C235.584 112.528 235.968 113.488 236.288 114.704C236.672 115.856 236.864 117.072 236.864 118.352C236.864 120.848 236.32 122.64 235.232 123.728C234.208 124.752 232.8 125.264 231.008 125.264H210.848V136.112H231.872C232.384 136.816 232.8 137.744 233.12 138.896C233.504 140.048 233.696 141.264 233.696 142.544C233.696 144.976 233.152 146.736 232.064 147.824C231.04 148.848 229.632 149.36 227.84 149.36H211.04V169.616C210.336 169.808 209.216 170 207.68 170.192C206.208 170.384 204.736 170.48 203.264 170.48C201.792 170.48 200.48 170.352 199.328 170.096C198.24 169.904 197.312 169.52 196.544 168.944C195.776 168.368 195.2 167.568 194.816 166.544C194.432 165.52 194.24 164.176 194.24 162.512V120.752C194.24 118 195.04 115.824 196.64 114.224C198.24 112.624 200.416 111.824 203.168 111.824H235.136ZM260.6 169.904C259.896 170.032 258.84 170.192 257.432 170.384C256.088 170.64 254.712 170.768 253.304 170.768C251.896 170.768 250.616 170.672 249.464 170.48C248.376 170.288 247.448 169.904 246.68 169.328C245.912 168.752 245.304 167.984 244.856 167.024C244.472 166 244.28 164.688 244.28 163.088V107.408C244.984 107.28 246.008 107.12 247.352 106.928C248.76 106.672 250.168 106.544 251.576 106.544C252.984 106.544 254.232 106.64 255.32 106.832C256.472 107.024 257.432 107.408 258.2 107.984C258.968 108.56 259.544 109.36 259.928 110.384C260.376 111.344 260.6 112.624 260.6 114.224V169.904ZM270.514 110.384C270.514 107.952 271.314 105.904 272.914 104.24C274.578 102.576 276.754 101.744 279.442 101.744C282.13 101.744 284.274 102.576 285.874 104.24C287.538 105.904 288.37 107.952 288.37 110.384C288.37 112.816 287.538 114.864 285.874 116.528C284.274 118.192 282.13 119.024 279.442 119.024C276.754 119.024 274.578 118.192 272.914 116.528C271.314 114.864 270.514 112.816 270.514 110.384ZM287.602 169.904C286.898 170.032 285.842 170.192 284.434 170.384C283.09 170.64 281.714 170.768 280.306 170.768C278.898 170.768 277.618 170.672 276.466 170.48C275.378 170.288 274.45 169.904 273.682 169.328C272.914 168.752 272.306 167.984 271.858 167.024C271.474 166 271.282 164.688 271.282 163.088V124.016C271.986 123.888 273.01 123.728 274.354 123.536C275.762 123.28 277.17 123.152 278.578 123.152C279.986 123.152 281.234 123.248 282.322 123.44C283.474 123.632 284.434 124.016 285.202 124.592C285.97 125.168 286.546 125.968 286.93 126.992C287.378 127.952 287.602 129.232 287.602 130.832V169.904ZM320.744 121.904C324.392 121.904 327.688 122.384 330.632 123.344C333.64 124.24 336.168 125.424 338.216 126.896C339.496 127.792 340.488 128.784 341.192 129.872C341.96 130.96 342.344 132.368 342.344 134.096V167.696C342.344 171.088 341.704 174 340.424 176.432C339.144 178.928 337.384 180.976 335.144 182.576C332.968 184.24 330.376 185.456 327.368 186.224C324.424 186.992 321.256 187.376 317.864 187.376C312.04 187.376 307.464 186.576 304.136 184.976C300.808 183.44 299.144 180.912 299.144 177.392C299.144 175.92 299.432 174.608 300.008 173.456C300.648 172.368 301.352 171.536 302.12 170.96C303.976 171.984 306.056 172.848 308.36 173.552C310.728 174.256 313.16 174.608 315.656 174.608C319.112 174.608 321.864 174.032 323.912 172.88C325.96 171.728 326.984 169.872 326.984 167.312V165.776C324.36 166.928 321.16 167.504 317.384 167.504C314.504 167.504 311.752 167.088 309.128 166.256C306.568 165.36 304.296 164.016 302.312 162.224C300.392 160.368 298.824 158 297.608 155.12C296.456 152.24 295.88 148.816 295.88 144.848C295.88 140.944 296.488 137.552 297.704 134.672C298.984 131.792 300.712 129.424 302.888 127.568C305.128 125.648 307.752 124.24 310.76 123.344C313.832 122.384 317.16 121.904 320.744 121.904ZM326.696 135.824C326.248 135.568 325.576 135.312 324.68 135.056C323.848 134.8 322.792 134.672 321.512 134.672C318.376 134.672 316.008 135.568 314.408 137.36C312.872 139.088 312.104 141.584 312.104 144.848C312.104 148.56 312.872 151.248 314.408 152.912C316.008 154.512 318.024 155.312 320.456 155.312C323.08 155.312 325.16 154.704 326.696 153.488V135.824ZM398.541 169.904C397.901 170.096 396.877 170.288 395.469 170.48C394.125 170.672 392.717 170.768 391.245 170.768C389.837 170.768 388.557 170.672 387.405 170.48C386.317 170.288 385.389 169.904 384.621 169.328C383.853 168.752 383.245 167.984 382.797 167.024C382.413 166 382.221 164.688 382.221 163.088V141.776C382.221 139.152 381.549 137.328 380.205 136.304C378.925 135.216 377.325 134.672 375.405 134.672C374.125 134.672 372.909 134.832 371.757 135.152C370.605 135.472 369.677 135.856 368.973 136.304V169.904C368.333 170.096 367.309 170.288 365.901 170.48C364.557 170.672 363.149 170.768 361.677 170.768C360.269 170.768 358.989 170.672 357.837 170.48C356.749 170.288 355.821 169.904 355.053 169.328C354.285 168.752 353.677 167.984 353.229 167.024C352.845 166 352.653 164.688 352.653 163.088V107.408C353.357 107.28 354.381 107.12 355.725 106.928C357.133 106.672 358.541 106.544 359.949 106.544C361.357 106.544 362.605 106.64 363.693 106.832C364.845 107.024 365.805 107.408 366.573 107.984C367.341 108.56 367.917 109.36 368.301 110.384C368.749 111.344 368.973 112.624 368.973 114.224V123.632C369.805 123.312 371.053 122.96 372.717 122.576C374.445 122.128 376.333 121.904 378.381 121.904C384.717 121.904 389.645 123.504 393.165 126.704C396.749 129.84 398.541 134.544 398.541 140.816V169.904ZM424.937 153.968C424.937 155.632 425.449 156.816 426.473 157.52C427.561 158.224 429.065 158.576 430.985 158.576C431.945 158.576 432.937 158.512 433.961 158.384C434.985 158.192 435.881 157.968 436.649 157.712C437.225 158.416 437.705 159.216 438.089 160.112C438.537 160.944 438.761 161.968 438.761 163.184C438.761 165.616 437.833 167.6 435.977 169.136C434.185 170.672 430.985 171.44 426.377 171.44C420.745 171.44 416.393 170.16 413.321 167.6C410.313 165.04 408.809 160.88 408.809 155.12V114.032C409.513 113.84 410.505 113.648 411.785 113.456C413.129 113.2 414.537 113.072 416.009 113.072C418.825 113.072 421.001 113.584 422.537 114.608C424.137 115.568 424.937 117.648 424.937 120.848V126.992H437.513C437.897 127.696 438.249 128.592 438.569 129.68C438.953 130.704 439.145 131.856 439.145 133.136C439.145 135.376 438.633 137.008 437.609 138.032C436.649 138.992 435.337 139.472 433.673 139.472H424.937V153.968Z" fill="#FF7190"/>
<g filter="url(#filter4_d)">
<path d="M231.136 111.824C231.584 112.528 231.968 113.488 232.288 114.704C232.672 115.856 232.864 117.072 232.864 118.352C232.864 120.848 232.32 122.64 231.232 123.728C230.208 124.752 228.8 125.264 227.008 125.264H206.848V136.112H227.872C228.384 136.816 228.8 137.744 229.12 138.896C229.504 140.048 229.696 141.264 229.696 142.544C229.696 144.976 229.152 146.736 228.064 147.824C227.04 148.848 225.632 149.36 223.84 149.36H207.04V169.616C206.336 169.808 205.216 170 203.68 170.192C202.208 170.384 200.736 170.48 199.264 170.48C197.792 170.48 196.48 170.352 195.328 170.096C194.24 169.904 193.312 169.52 192.544 168.944C191.776 168.368 191.2 167.568 190.816 166.544C190.432 165.52 190.24 164.176 190.24 162.512V120.752C190.24 118 191.04 115.824 192.64 114.224C194.24 112.624 196.416 111.824 199.168 111.824H231.136ZM256.6 169.904C255.896 170.032 254.84 170.192 253.432 170.384C252.088 170.64 250.712 170.768 249.304 170.768C247.896 170.768 246.616 170.672 245.464 170.48C244.376 170.288 243.448 169.904 242.68 169.328C241.912 168.752 241.304 167.984 240.856 167.024C240.472 166 240.28 164.688 240.28 163.088V107.408C240.984 107.28 242.008 107.12 243.352 106.928C244.76 106.672 246.168 106.544 247.576 106.544C248.984 106.544 250.232 106.64 251.32 106.832C252.472 107.024 253.432 107.408 254.2 107.984C254.968 108.56 255.544 109.36 255.928 110.384C256.376 111.344 256.6 112.624 256.6 114.224V169.904ZM266.514 110.384C266.514 107.952 267.314 105.904 268.914 104.24C270.578 102.576 272.754 101.744 275.442 101.744C278.13 101.744 280.274 102.576 281.874 104.24C283.538 105.904 284.37 107.952 284.37 110.384C284.37 112.816 283.538 114.864 281.874 116.528C280.274 118.192 278.13 119.024 275.442 119.024C272.754 119.024 270.578 118.192 268.914 116.528C267.314 114.864 266.514 112.816 266.514 110.384ZM283.602 169.904C282.898 170.032 281.842 170.192 280.434 170.384C279.09 170.64 277.714 170.768 276.306 170.768C274.898 170.768 273.618 170.672 272.466 170.48C271.378 170.288 270.45 169.904 269.682 169.328C268.914 168.752 268.306 167.984 267.858 167.024C267.474 166 267.282 164.688 267.282 163.088V124.016C267.986 123.888 269.01 123.728 270.354 123.536C271.762 123.28 273.17 123.152 274.578 123.152C275.986 123.152 277.234 123.248 278.322 123.44C279.474 123.632 280.434 124.016 281.202 124.592C281.97 125.168 282.546 125.968 282.93 126.992C283.378 127.952 283.602 129.232 283.602 130.832V169.904ZM316.744 121.904C320.392 121.904 323.688 122.384 326.632 123.344C329.64 124.24 332.168 125.424 334.216 126.896C335.496 127.792 336.488 128.784 337.192 129.872C337.96 130.96 338.344 132.368 338.344 134.096V167.696C338.344 171.088 337.704 174 336.424 176.432C335.144 178.928 333.384 180.976 331.144 182.576C328.968 184.24 326.376 185.456 323.368 186.224C320.424 186.992 317.256 187.376 313.864 187.376C308.04 187.376 303.464 186.576 300.136 184.976C296.808 183.44 295.144 180.912 295.144 177.392C295.144 175.92 295.432 174.608 296.008 173.456C296.648 172.368 297.352 171.536 298.12 170.96C299.976 171.984 302.056 172.848 304.36 173.552C306.728 174.256 309.16 174.608 311.656 174.608C315.112 174.608 317.864 174.032 319.912 172.88C321.96 171.728 322.984 169.872 322.984 167.312V165.776C320.36 166.928 317.16 167.504 313.384 167.504C310.504 167.504 307.752 167.088 305.128 166.256C302.568 165.36 300.296 164.016 298.312 162.224C296.392 160.368 294.824 158 293.608 155.12C292.456 152.24 291.88 148.816 291.88 144.848C291.88 140.944 292.488 137.552 293.704 134.672C294.984 131.792 296.712 129.424 298.888 127.568C301.128 125.648 303.752 124.24 306.76 123.344C309.832 122.384 313.16 121.904 316.744 121.904ZM322.696 135.824C322.248 135.568 321.576 135.312 320.68 135.056C319.848 134.8 318.792 134.672 317.512 134.672C314.376 134.672 312.008 135.568 310.408 137.36C308.872 139.088 308.104 141.584 308.104 144.848C308.104 148.56 308.872 151.248 310.408 152.912C312.008 154.512 314.024 155.312 316.456 155.312C319.08 155.312 321.16 154.704 322.696 153.488V135.824ZM394.541 169.904C393.901 170.096 392.877 170.288 391.469 170.48C390.125 170.672 388.717 170.768 387.245 170.768C385.837 170.768 384.557 170.672 383.405 170.48C382.317 170.288 381.389 169.904 380.621 169.328C379.853 168.752 379.245 167.984 378.797 167.024C378.413 166 378.221 164.688 378.221 163.088V141.776C378.221 139.152 377.549 137.328 376.205 136.304C374.925 135.216 373.325 134.672 371.405 134.672C370.125 134.672 368.909 134.832 367.757 135.152C366.605 135.472 365.677 135.856 364.973 136.304V169.904C364.333 170.096 363.309 170.288 361.901 170.48C360.557 170.672 359.149 170.768 357.677 170.768C356.269 170.768 354.989 170.672 353.837 170.48C352.749 170.288 351.821 169.904 351.053 169.328C350.285 168.752 349.677 167.984 349.229 167.024C348.845 166 348.653 164.688 348.653 163.088V107.408C349.357 107.28 350.381 107.12 351.725 106.928C353.133 106.672 354.541 106.544 355.949 106.544C357.357 106.544 358.605 106.64 359.693 106.832C360.845 107.024 361.805 107.408 362.573 107.984C363.341 108.56 363.917 109.36 364.301 110.384C364.749 111.344 364.973 112.624 364.973 114.224V123.632C365.805 123.312 367.053 122.96 368.717 122.576C370.445 122.128 372.333 121.904 374.381 121.904C380.717 121.904 385.645 123.504 389.165 126.704C392.749 129.84 394.541 134.544 394.541 140.816V169.904ZM420.937 153.968C420.937 155.632 421.449 156.816 422.473 157.52C423.561 158.224 425.065 158.576 426.985 158.576C427.945 158.576 428.937 158.512 429.961 158.384C430.985 158.192 431.881 157.968 432.649 157.712C433.225 158.416 433.705 159.216 434.089 160.112C434.537 160.944 434.761 161.968 434.761 163.184C434.761 165.616 433.833 167.6 431.977 169.136C430.185 170.672 426.985 171.44 422.377 171.44C416.745 171.44 412.393 170.16 409.321 167.6C406.313 165.04 404.809 160.88 404.809 155.12V114.032C405.513 113.84 406.505 113.648 407.785 113.456C409.129 113.2 410.537 113.072 412.009 113.072C414.825 113.072 417.001 113.584 418.537 114.608C420.137 115.568 420.937 117.648 420.937 120.848V126.992H433.513C433.897 127.696 434.249 128.592 434.569 129.68C434.953 130.704 435.145 131.856 435.145 133.136C435.145 135.376 434.633 137.008 433.609 138.032C432.649 138.992 431.337 139.472 429.673 139.472H420.937V153.968Z" fill="#FF879B"/>
</g>
<defs>
<filter id="filter0_d" x="230" y="3" width="220" height="220" filterUnits="userSpaceOnUse" color-interpolation-filters="sRGB">
<feFlood flood-opacity="0" result="BackgroundImageFix"/>
<feColorMatrix in="SourceAlpha" type="matrix" values="0 0 0 0 0 0 0 0 0 0 0 0 0 0 0 0 0 0 127 0"/>
<feOffset dy="4"/>
<feGaussianBlur stdDeviation="2"/>
<feColorMatrix type="matrix" values="0 0 0 0 0 0 0 0 0 0 0 0 0 0 0 0 0 0 0.25 0"/>
<feBlend mode="normal" in2="BackgroundImageFix" result="effect1_dropShadow"/>
<feBlend mode="normal" in="SourceGraphic" in2="effect1_dropShadow" result="shape"/>
</filter>
<filter id="filter1_d" x="389.133" y="18.2039" width="88.8669" height="76.5464" filterUnits="userSpaceOnUse" color-interpolation-filters="sRGB">
<feFlood flood-opacity="0" result="BackgroundImageFix"/>
<feColorMatrix in="SourceAlpha" type="matrix" values="0 0 0 0 0 0 0 0 0 0 0 0 0 0 0 0 0 0 127 0"/>
<feOffset dy="4"/>
<feGaussianBlur stdDeviation="2"/>
<feColorMatrix type="matrix" values="0 0 0 0 0 0 0 0 0 0 0 0 0 0 0 0 0 0 0.25 0"/>
<feBlend mode="normal" in2="BackgroundImageFix" result="effect1_dropShadow"/>
<feBlend mode="normal" in="SourceGraphic" in2="effect1_dropShadow" result="shape"/>
</filter>
<filter id="filter2_d" x="305.205" y="78.4645" width="170.146" height="51.6501" filterUnits="userSpaceOnUse" color-interpolation-filters="sRGB">
<feFlood flood-opacity="0" result="BackgroundImageFix"/>
<feColorMatrix in="SourceAlpha" type="matrix" values="0 0 0 0 0 0 0 0 0 0 0 0 0 0 0 0 0 0 127 0"/>
<feOffset dy="4"/>
<feGaussianBlur stdDeviation="2"/>
<feColorMatrix type="matrix" values="0 0 0 0 0 0 0 0 0 0 0 0 0 0 0 0 0 0 0.25 0"/>
<feBlend mode="normal" in2="BackgroundImageFix" result="effect1_dropShadow"/>
<feBlend mode="normal" in="SourceGraphic" in2="effect1_dropShadow" result="shape"/>
</filter>
<filter id="filter3_d" x="0.840027" y="41.192" width="272.93" height="69.344" filterUnits="userSpaceOnUse" color-interpolation-filters="sRGB">
<feFlood flood-opacity="0" result="BackgroundImageFix"/>
<feColorMatrix in="SourceAlpha" type="matrix" values="0 0 0 0 0 0 0 0 0 0 0 0 0 0 0 0 0 0 127 0"/>
<feOffset dy="4"/>
<feGaussianBlur stdDeviation="2"/>
<feColorMatrix type="matrix" values="0 0 0 0 0 0 0 0 0 0 0 0 0 0 0 0 0 0 0.25 0"/>
<feBlend mode="normal" in2="BackgroundImageFix" result="effect1_dropShadow"/>
<feBlend mode="normal" in="SourceGraphic" in2="effect1_dropShadow" result="shape"/>
</filter>
<filter id="filter4_d" x="186.24" y="101.744" width="252.905" height="93.632" filterUnits="userSpaceOnUse" color-interpolation-filters="sRGB">
<feFlood flood-opacity="0" result="BackgroundImageFix"/>
<feColorMatrix in="SourceAlpha" type="matrix" values="0 0 0 0 0 0 0 0 0 0 0 0 0 0 0 0 0 0 127 0"/>
<feOffset dy="4"/>
<feGaussianBlur stdDeviation="2"/>
<feColorMatrix type="matrix" values="0 0 0 0 0 0 0 0 0 0 0 0 0 0 0 0 0 0 0.25 0"/>
<feBlend mode="normal" in2="BackgroundImageFix" result="effect1_dropShadow"/>
<feBlend mode="normal" in="SourceGraphic" in2="effect1_dropShadow" result="shape"/>
</filter>
</defs>
</svg>
