<svg width="310" height="235" viewBox="0 0 310 235" fill="none" xmlns="http://www.w3.org/2000/svg">
<g filter="url(#filter0_d)">
<path d="M142 212C200.542 212 248 164.542 248 106C248 47.4578 200.542 0 142 0C83.4578 0 36 47.4578 36 106C36 164.542 83.4578 212 142 212Z" fill="#AAE0E7"/>
</g>
<g filter="url(#filter1_d)">
<path d="M265.42 39.8475C275.613 45.8415 279.027 58.91 273.073 69.0322C271.172 72.2603 268.838 74.9067 266.131 77.1212C263.542 75.6922 260.256 75.0835 256.273 75.7098L205.432 83.7503C198.128 59.9421 189.955 41.6819 199.38 25.6676C205.335 15.5453 218.416 12.1845 228.588 18.1696C237.797 23.5902 239.702 30.8809 238.913 42.7585C248.911 36.3015 256.211 34.427 265.42 39.8475Z" fill="#FF879B"/>
</g>
<path d="M205.997 31.1808C211.905 21.1375 224.827 17.7559 234.963 23.5487C233.397 21.5455 231.315 19.7742 228.588 18.1696C218.417 12.1845 205.335 15.5453 199.381 25.6676C189.956 41.6823 198.128 59.9421 205.433 83.7503L210.084 83.0146C203.424 62.2117 197.414 45.7648 205.997 31.1808Z" fill="#FF7190"/>
<path d="M231.102 99.1295L208.343 114.434L179.146 139.094H163.161L186.665 115.18L203.125 99.1295H231.102Z" fill="#B0B7DC"/>
<path d="M188.573 119.964L205.033 103.914H223.988L231.102 99.1295H203.125L186.665 115.18L163.161 139.094H169.771L188.573 119.964Z" fill="#97A1C9"/>
<g filter="url(#filter2_d)">
<path d="M266.13 77.1212C278.347 83.8606 275.062 108.983 256.272 110.514L208.343 114.435L231.101 99.1299H203.125L186.665 115.18L135.185 119.115L111.205 83.1465L142.612 93.6833L205.432 83.7507L256.273 75.7103C260.255 75.0835 263.541 75.6917 266.13 77.1212Z" fill="#D8EEFB"/>
</g>
<path d="M145.468 99.5194L208.288 89.5868L259.128 81.5463C263.111 80.92 266.397 81.5287 268.986 82.9577C270.461 83.7715 271.708 84.8551 272.731 86.1311C271.735 82.3058 269.536 78.9988 266.131 77.1208C263.542 75.6917 260.256 75.0831 256.273 75.7094L205.432 83.7498L142.612 93.6824L111.205 83.1456L115.394 89.4298L145.468 99.5194Z" fill="#CCE4F0"/>
<path d="M259.078 86.6745H251.086V94.666H259.078V86.6745Z" fill="#B3D7E8"/>
<path d="M247.085 90.67H239.094V98.662H247.085V90.67Z" fill="#B3D7E8"/>
<path d="M179.146 98.6624H171.154V106.654H179.146V98.6624Z" fill="#B3D7E8"/>
<path d="M163.161 102.658H155.169V110.65H163.161V102.658Z" fill="#B3D7E8"/>
<path d="M183.141 45.3828C181.923 45.3828 180.936 44.3953 180.936 43.1775C180.936 37.7834 176.547 33.3944 171.153 33.3944C170.038 33.3944 168.936 33.585 167.876 33.9603C167.188 34.2047 166.422 34.0913 165.832 33.6578C165.244 33.2246 164.907 32.5273 164.936 31.7965C164.944 31.5954 164.952 31.3943 164.952 31.1887C164.952 23.5911 158.768 17.4106 151.169 17.4106C145.81 17.4106 140.895 20.5606 138.647 25.4347C138.396 25.9798 137.932 26.3997 137.365 26.5956C136.797 26.7914 136.174 26.7482 135.639 26.4743C134.25 25.7633 132.753 25.4025 131.189 25.4025C129.971 25.4025 128.983 24.415 128.983 23.1972C128.983 21.979 129.971 20.9919 131.189 20.9919C132.725 20.9919 134.217 21.2319 135.647 21.7073C138.927 16.3573 144.81 13 151.168 13C160.498 13 168.21 20.0573 169.244 29.1127C169.875 29.0267 170.512 28.9834 171.152 28.9834C178.978 28.9834 185.346 35.351 185.346 43.1771C185.346 44.3953 184.359 45.3828 183.141 45.3828Z" fill="#4DD0E2"/>
<path d="M142.158 199.383C140.94 199.383 139.952 198.395 139.952 197.178C139.952 191.783 135.564 187.394 130.17 187.394C129.055 187.394 127.952 187.585 126.893 187.96C126.204 188.205 125.438 188.091 124.849 187.658C124.26 187.225 123.924 186.527 123.952 185.797C123.96 185.595 123.968 185.394 123.968 185.189C123.968 177.591 117.785 171.411 110.185 171.411C104.826 171.411 99.9112 174.561 97.6635 179.435C97.4121 179.98 96.949 180.4 96.3814 180.596C95.8133 180.791 95.191 180.748 94.656 180.474C93.2671 179.763 91.7697 179.403 90.2053 179.403C88.9875 179.403 88 178.415 88 177.197C88 175.979 88.9875 174.992 90.2053 174.992C91.7419 174.992 93.234 175.232 94.6639 175.707C97.9432 170.357 103.826 167 110.185 167C119.514 167 127.227 174.057 128.261 183.113C128.892 183.027 129.529 182.983 130.169 182.983C137.995 182.983 144.362 189.351 144.362 197.177C144.363 198.395 143.376 199.383 142.158 199.383Z" fill="#4DD0E2"/>
<path d="M87.7911 108C84.5978 108 82 110.596 82 113.786C82 116.979 84.5978 119.578 87.7911 119.578C90.9817 119.578 93.5777 116.979 93.5777 113.786C93.5777 110.596 90.9817 108 87.7911 108Z" fill="#FFD15C"/>
<path d="M83.7091 115.433C83.7091 112.242 86.3069 109.646 89.5002 109.646C90.9676 109.646 92.3049 110.2 93.3263 111.104C92.6034 108.731 90.3964 107 87.7911 107C84.5978 107 82 109.596 82 112.786C82 114.51 82.7617 116.057 83.9609 117.118C83.7982 116.585 83.7091 116.019 83.7091 115.433Z" fill="#F7B64C"/>
<path d="M192.791 71C189.598 71 187 73.5956 187 76.7862C187 79.9795 189.598 82.5777 192.791 82.5777C195.982 82.5777 198.578 79.9795 198.578 76.7862C198.578 73.5956 195.982 71 192.791 71Z" fill="#FFD15C"/>
<path d="M188.709 78.4326C188.709 75.2419 191.307 72.6463 194.5 72.6463C195.968 72.6463 197.305 73.1999 198.326 74.1036C197.603 71.7311 195.396 70 192.791 70C189.598 70 187 72.5956 187 75.7862C187 77.5103 187.762 79.0566 188.961 80.1183C188.798 79.5846 188.709 79.0192 188.709 78.4326Z" fill="#F7B64C"/>
<path d="M15.168 78.576C13.2907 77.936 11.584 77.296 10.048 76.656C8.512 75.9733 7.18933 75.1627 6.08 74.224C4.97067 73.2853 4.096 72.176 3.456 70.896C2.85867 69.5733 2.56 67.9733 2.56 66.096C2.56 62.4693 3.94667 59.568 6.72 57.392C9.536 55.216 13.4613 54.128 18.496 54.128C20.3307 54.128 22.0373 54.256 23.616 54.512C25.1947 54.768 26.5387 55.1733 27.648 55.728C28.8 56.24 29.696 56.9227 30.336 57.776C30.976 58.5867 31.296 59.5467 31.296 60.656C31.296 61.7653 31.04 62.7253 30.528 63.536C30.016 64.304 29.3973 64.9653 28.672 65.52C27.7333 64.9227 26.4747 64.4107 24.896 63.984C23.3173 63.5147 21.5893 63.28 19.712 63.28C17.792 63.28 16.384 63.5573 15.488 64.112C14.592 64.624 14.144 65.2853 14.144 66.096C14.144 66.736 14.4213 67.2693 14.976 67.696C15.5307 68.08 16.3627 68.4427 17.472 68.784L20.864 69.872C24.8747 71.152 27.9467 72.7947 30.08 74.8C32.256 76.7627 33.344 79.4507 33.344 82.864C33.344 86.4907 31.9147 89.4347 29.056 91.696C26.1973 93.9147 21.9947 95.024 16.448 95.024C14.4853 95.024 12.6507 94.8533 10.944 94.512C9.28 94.2133 7.808 93.7653 6.528 93.168C5.29067 92.528 4.30933 91.76 3.584 90.864C2.90133 89.9253 2.56 88.8587 2.56 87.664C2.56 86.4267 2.92267 85.3813 3.648 84.528C4.37333 83.632 5.16267 82.9493 6.016 82.48C7.21067 83.4187 8.66133 84.2293 10.368 84.912C12.1173 85.5947 14.016 85.936 16.064 85.936C18.1547 85.936 19.6267 85.616 20.48 84.976C21.3333 84.336 21.76 83.5893 21.76 82.736C21.76 81.8827 21.4187 81.2427 20.736 80.816C20.0533 80.3467 19.0933 79.8987 17.856 79.472L15.168 78.576ZM55.681 93.04C55.0837 93.552 54.273 93.9573 53.249 94.256C52.225 94.5973 51.009 94.768 49.601 94.768C47.8517 94.768 46.337 94.512 45.057 94C43.777 93.5307 42.9237 92.848 42.497 91.952C42.0277 90.928 41.473 89.3067 40.833 87.088C40.2357 84.8693 39.6383 82.4373 39.041 79.792C38.4437 77.1467 37.8677 74.4587 37.313 71.728C36.801 68.9973 36.3957 66.5867 36.097 64.496C36.6943 63.8987 37.4837 63.3867 38.465 62.96C39.489 62.4907 40.5983 62.256 41.793 62.256C43.2863 62.256 44.5023 62.5973 45.441 63.28C46.4223 63.92 47.0197 65.0507 47.233 66.672C47.6597 69.9147 48.0223 72.6027 48.321 74.736C48.6197 76.8267 48.8543 78.5547 49.025 79.92C49.2383 81.2427 49.3877 82.2667 49.473 82.992C49.601 83.6747 49.7077 84.2293 49.793 84.656H50.049C50.177 83.9733 50.3903 82.992 50.689 81.712C51.0303 80.3893 51.4143 78.896 51.841 77.232C52.2677 75.568 52.7157 73.776 53.185 71.856C53.6543 69.8933 54.1237 67.952 54.593 66.032C55.4463 65.5627 56.2783 65.2 57.089 64.944C57.9423 64.688 58.9877 64.56 60.225 64.56C61.7183 64.56 62.9983 64.7947 64.065 65.264C65.1317 65.7333 65.8143 66.4587 66.113 67.44C66.625 69.3173 67.1157 71.152 67.585 72.944C68.0543 74.6933 68.481 76.336 68.865 77.872C69.249 79.3653 69.5903 80.7093 69.889 81.904C70.1877 83.056 70.401 83.9733 70.529 84.656H70.849C71.3183 81.3707 71.7663 77.9573 72.193 74.416C72.6623 70.8747 73.089 67.2693 73.473 63.6C74.241 63.1307 75.0517 62.7893 75.905 62.576C76.7583 62.3627 77.6117 62.256 78.465 62.256C79.9583 62.256 81.1957 62.576 82.177 63.216C83.1583 63.856 83.649 64.9653 83.649 66.544C83.649 67.2267 83.5423 68.2507 83.329 69.616C83.1157 70.9813 82.8383 72.5173 82.497 74.224C82.1557 75.9307 81.7503 77.7227 81.281 79.6C80.8543 81.4773 80.4063 83.2907 79.937 85.04C79.5103 86.7893 79.0837 88.368 78.657 89.776C78.273 91.184 77.9317 92.272 77.633 93.04C77.0357 93.552 76.1183 93.9573 74.881 94.256C73.6437 94.5973 72.321 94.768 70.913 94.768C67.329 94.768 65.217 93.872 64.577 92.08C64.321 91.312 64.001 90.352 63.617 89.2C63.233 88.0053 62.8277 86.704 62.401 85.296C61.9743 83.888 61.569 82.4373 61.185 80.944C60.801 79.408 60.481 77.936 60.225 76.528C59.9263 78.0213 59.5637 79.5787 59.137 81.2C58.7103 82.7787 58.2623 84.336 57.793 85.872C57.3663 87.3653 56.961 88.752 56.577 90.032C56.193 91.2693 55.8943 92.272 55.681 93.04ZM105.026 95.024C102.509 95.024 100.162 94.6827 97.986 94C95.8527 93.2747 93.9753 92.208 92.354 90.8C90.7753 89.392 89.5167 87.6213 88.578 85.488C87.682 83.3547 87.234 80.8587 87.234 78C87.234 75.184 87.682 72.7733 88.578 70.768C89.5167 68.72 90.7327 67.056 92.226 65.776C93.7193 64.4533 95.426 63.4933 97.346 62.896C99.266 62.256 101.229 61.936 103.234 61.936C105.495 61.936 107.543 62.2773 109.378 62.96C111.255 63.6427 112.855 64.5813 114.178 65.776C115.543 66.9707 116.589 68.4 117.314 70.064C118.082 71.728 118.466 73.5413 118.466 75.504C118.466 76.9547 118.061 78.064 117.25 78.832C116.439 79.6 115.309 80.0907 113.858 80.304L98.05 82.672C98.5193 84.08 99.4793 85.1467 100.93 85.872C102.381 86.5547 104.045 86.896 105.922 86.896C107.671 86.896 109.314 86.6827 110.85 86.256C112.429 85.7867 113.709 85.2533 114.69 84.656C115.373 85.0827 115.949 85.68 116.418 86.448C116.887 87.216 117.122 88.0267 117.122 88.88C117.122 90.8 116.226 92.2293 114.434 93.168C113.069 93.8933 111.533 94.384 109.826 94.64C108.119 94.896 106.519 95.024 105.026 95.024ZM103.234 69.872C102.21 69.872 101.314 70.0427 100.546 70.384C99.8207 70.7253 99.2233 71.1733 98.754 71.728C98.2847 72.24 97.922 72.8373 97.666 73.52C97.4527 74.16 97.3247 74.8213 97.282 75.504L108.226 73.712C108.098 72.8587 107.629 72.0053 106.818 71.152C106.007 70.2987 104.813 69.872 103.234 69.872ZM140.151 95.024C137.634 95.024 135.287 94.6827 133.111 94C130.978 93.2747 129.1 92.208 127.479 90.8C125.9 89.392 124.642 87.6213 123.703 85.488C122.807 83.3547 122.359 80.8587 122.359 78C122.359 75.184 122.807 72.7733 123.703 70.768C124.642 68.72 125.858 67.056 127.351 65.776C128.844 64.4533 130.551 63.4933 132.471 62.896C134.391 62.256 136.354 61.936 138.359 61.936C140.62 61.936 142.668 62.2773 144.503 62.96C146.38 63.6427 147.98 64.5813 149.303 65.776C150.668 66.9707 151.714 68.4 152.439 70.064C153.207 71.728 153.591 73.5413 153.591 75.504C153.591 76.9547 153.186 78.064 152.375 78.832C151.564 79.6 150.434 80.0907 148.983 80.304L133.175 82.672C133.644 84.08 134.604 85.1467 136.055 85.872C137.506 86.5547 139.17 86.896 141.047 86.896C142.796 86.896 144.439 86.6827 145.975 86.256C147.554 85.7867 148.834 85.2533 149.815 84.656C150.498 85.0827 151.074 85.68 151.543 86.448C152.012 87.216 152.247 88.0267 152.247 88.88C152.247 90.8 151.351 92.2293 149.559 93.168C148.194 93.8933 146.658 94.384 144.951 94.64C143.244 94.896 141.644 95.024 140.151 95.024ZM138.359 69.872C137.335 69.872 136.439 70.0427 135.671 70.384C134.946 70.7253 134.348 71.1733 133.879 71.728C133.41 72.24 133.047 72.8373 132.791 73.52C132.578 74.16 132.45 74.8213 132.407 75.504L143.351 73.712C143.223 72.8587 142.754 72.0053 141.943 71.152C141.132 70.2987 139.938 69.872 138.359 69.872ZM169.708 83.312C169.708 84.4213 170.049 85.2107 170.732 85.68C171.457 86.1493 172.46 86.384 173.74 86.384C174.38 86.384 175.041 86.3413 175.724 86.256C176.407 86.128 177.004 85.9787 177.516 85.808C177.9 86.2773 178.22 86.8107 178.476 87.408C178.775 87.9627 178.924 88.6453 178.924 89.456C178.924 91.0773 178.305 92.4 177.068 93.424C175.873 94.448 173.74 94.96 170.668 94.96C166.913 94.96 164.012 94.1067 161.964 92.4C159.959 90.6933 158.956 87.92 158.956 84.08V56.688C159.425 56.56 160.087 56.432 160.94 56.304C161.836 56.1333 162.775 56.048 163.756 56.048C165.633 56.048 167.084 56.3893 168.108 57.072C169.175 57.712 169.708 59.0987 169.708 61.232V65.328H178.092C178.348 65.7973 178.583 66.3947 178.796 67.12C179.052 67.8027 179.18 68.5707 179.18 69.424C179.18 70.9173 178.839 72.0053 178.156 72.688C177.516 73.328 176.641 73.648 175.532 73.648H169.708V83.312Z" fill="#7D90F8"/>
<g filter="url(#filter3_d)">
<path d="M17.168 79.576C15.2907 78.936 13.584 78.296 12.048 77.656C10.512 76.9733 9.18933 76.1627 8.08 75.224C6.97067 74.2853 6.096 73.176 5.456 71.896C4.85867 70.5733 4.56 68.9733 4.56 67.096C4.56 63.4693 5.94667 60.568 8.72 58.392C11.536 56.216 15.4613 55.128 20.496 55.128C22.3307 55.128 24.0373 55.256 25.616 55.512C27.1947 55.768 28.5387 56.1733 29.648 56.728C30.8 57.24 31.696 57.9227 32.336 58.776C32.976 59.5867 33.296 60.5467 33.296 61.656C33.296 62.7653 33.04 63.7253 32.528 64.536C32.016 65.304 31.3973 65.9653 30.672 66.52C29.7333 65.9227 28.4747 65.4107 26.896 64.984C25.3173 64.5147 23.5893 64.28 21.712 64.28C19.792 64.28 18.384 64.5573 17.488 65.112C16.592 65.624 16.144 66.2853 16.144 67.096C16.144 67.736 16.4213 68.2693 16.976 68.696C17.5307 69.08 18.3627 69.4427 19.472 69.784L22.864 70.872C26.8747 72.152 29.9467 73.7947 32.08 75.8C34.256 77.7627 35.344 80.4507 35.344 83.864C35.344 87.4907 33.9147 90.4347 31.056 92.696C28.1973 94.9147 23.9947 96.024 18.448 96.024C16.4853 96.024 14.6507 95.8533 12.944 95.512C11.28 95.2133 9.808 94.7653 8.528 94.168C7.29067 93.528 6.30933 92.76 5.584 91.864C4.90133 90.9253 4.56 89.8587 4.56 88.664C4.56 87.4267 4.92267 86.3813 5.648 85.528C6.37333 84.632 7.16267 83.9493 8.016 83.48C9.21067 84.4187 10.6613 85.2293 12.368 85.912C14.1173 86.5947 16.016 86.936 18.064 86.936C20.1547 86.936 21.6267 86.616 22.48 85.976C23.3333 85.336 23.76 84.5893 23.76 83.736C23.76 82.8827 23.4187 82.2427 22.736 81.816C22.0533 81.3467 21.0933 80.8987 19.856 80.472L17.168 79.576ZM57.681 94.04C57.0837 94.552 56.273 94.9573 55.249 95.256C54.225 95.5973 53.009 95.768 51.601 95.768C49.8517 95.768 48.337 95.512 47.057 95C45.777 94.5307 44.9237 93.848 44.497 92.952C44.0277 91.928 43.473 90.3067 42.833 88.088C42.2357 85.8693 41.6383 83.4373 41.041 80.792C40.4437 78.1467 39.8677 75.4587 39.313 72.728C38.801 69.9973 38.3957 67.5867 38.097 65.496C38.6943 64.8987 39.4837 64.3867 40.465 63.96C41.489 63.4907 42.5983 63.256 43.793 63.256C45.2863 63.256 46.5023 63.5973 47.441 64.28C48.4223 64.92 49.0197 66.0507 49.233 67.672C49.6597 70.9147 50.0223 73.6027 50.321 75.736C50.6197 77.8267 50.8543 79.5547 51.025 80.92C51.2383 82.2427 51.3877 83.2667 51.473 83.992C51.601 84.6747 51.7077 85.2293 51.793 85.656H52.049C52.177 84.9733 52.3903 83.992 52.689 82.712C53.0303 81.3893 53.4143 79.896 53.841 78.232C54.2677 76.568 54.7157 74.776 55.185 72.856C55.6543 70.8933 56.1237 68.952 56.593 67.032C57.4463 66.5627 58.2783 66.2 59.089 65.944C59.9423 65.688 60.9877 65.56 62.225 65.56C63.7183 65.56 64.9983 65.7947 66.065 66.264C67.1317 66.7333 67.8143 67.4587 68.113 68.44C68.625 70.3173 69.1157 72.152 69.585 73.944C70.0543 75.6933 70.481 77.336 70.865 78.872C71.249 80.3653 71.5903 81.7093 71.889 82.904C72.1877 84.056 72.401 84.9733 72.529 85.656H72.849C73.3183 82.3707 73.7663 78.9573 74.193 75.416C74.6623 71.8747 75.089 68.2693 75.473 64.6C76.241 64.1307 77.0517 63.7893 77.905 63.576C78.7583 63.3627 79.6117 63.256 80.465 63.256C81.9583 63.256 83.1957 63.576 84.177 64.216C85.1583 64.856 85.649 65.9653 85.649 67.544C85.649 68.2267 85.5423 69.2507 85.329 70.616C85.1157 71.9813 84.8383 73.5173 84.497 75.224C84.1557 76.9307 83.7503 78.7227 83.281 80.6C82.8543 82.4773 82.4063 84.2907 81.937 86.04C81.5103 87.7893 81.0837 89.368 80.657 90.776C80.273 92.184 79.9317 93.272 79.633 94.04C79.0357 94.552 78.1183 94.9573 76.881 95.256C75.6437 95.5973 74.321 95.768 72.913 95.768C69.329 95.768 67.217 94.872 66.577 93.08C66.321 92.312 66.001 91.352 65.617 90.2C65.233 89.0053 64.8277 87.704 64.401 86.296C63.9743 84.888 63.569 83.4373 63.185 81.944C62.801 80.408 62.481 78.936 62.225 77.528C61.9263 79.0213 61.5637 80.5787 61.137 82.2C60.7103 83.7787 60.2623 85.336 59.793 86.872C59.3663 88.3653 58.961 89.752 58.577 91.032C58.193 92.2693 57.8943 93.272 57.681 94.04ZM107.026 96.024C104.509 96.024 102.162 95.6827 99.986 95C97.8527 94.2747 95.9753 93.208 94.354 91.8C92.7753 90.392 91.5167 88.6213 90.578 86.488C89.682 84.3547 89.234 81.8587 89.234 79C89.234 76.184 89.682 73.7733 90.578 71.768C91.5167 69.72 92.7327 68.056 94.226 66.776C95.7193 65.4533 97.426 64.4933 99.346 63.896C101.266 63.256 103.229 62.936 105.234 62.936C107.495 62.936 109.543 63.2773 111.378 63.96C113.255 64.6427 114.855 65.5813 116.178 66.776C117.543 67.9707 118.589 69.4 119.314 71.064C120.082 72.728 120.466 74.5413 120.466 76.504C120.466 77.9547 120.061 79.064 119.25 79.832C118.439 80.6 117.309 81.0907 115.858 81.304L100.05 83.672C100.519 85.08 101.479 86.1467 102.93 86.872C104.381 87.5547 106.045 87.896 107.922 87.896C109.671 87.896 111.314 87.6827 112.85 87.256C114.429 86.7867 115.709 86.2533 116.69 85.656C117.373 86.0827 117.949 86.68 118.418 87.448C118.887 88.216 119.122 89.0267 119.122 89.88C119.122 91.8 118.226 93.2293 116.434 94.168C115.069 94.8933 113.533 95.384 111.826 95.64C110.119 95.896 108.519 96.024 107.026 96.024ZM105.234 70.872C104.21 70.872 103.314 71.0427 102.546 71.384C101.821 71.7253 101.223 72.1733 100.754 72.728C100.285 73.24 99.922 73.8373 99.666 74.52C99.4527 75.16 99.3247 75.8213 99.282 76.504L110.226 74.712C110.098 73.8587 109.629 73.0053 108.818 72.152C108.007 71.2987 106.813 70.872 105.234 70.872ZM142.151 96.024C139.634 96.024 137.287 95.6827 135.111 95C132.978 94.2747 131.1 93.208 129.479 91.8C127.9 90.392 126.642 88.6213 125.703 86.488C124.807 84.3547 124.359 81.8587 124.359 79C124.359 76.184 124.807 73.7733 125.703 71.768C126.642 69.72 127.858 68.056 129.351 66.776C130.844 65.4533 132.551 64.4933 134.471 63.896C136.391 63.256 138.354 62.936 140.359 62.936C142.62 62.936 144.668 63.2773 146.503 63.96C148.38 64.6427 149.98 65.5813 151.303 66.776C152.668 67.9707 153.714 69.4 154.439 71.064C155.207 72.728 155.591 74.5413 155.591 76.504C155.591 77.9547 155.186 79.064 154.375 79.832C153.564 80.6 152.434 81.0907 150.983 81.304L135.175 83.672C135.644 85.08 136.604 86.1467 138.055 86.872C139.506 87.5547 141.17 87.896 143.047 87.896C144.796 87.896 146.439 87.6827 147.975 87.256C149.554 86.7867 150.834 86.2533 151.815 85.656C152.498 86.0827 153.074 86.68 153.543 87.448C154.012 88.216 154.247 89.0267 154.247 89.88C154.247 91.8 153.351 93.2293 151.559 94.168C150.194 94.8933 148.658 95.384 146.951 95.64C145.244 95.896 143.644 96.024 142.151 96.024ZM140.359 70.872C139.335 70.872 138.439 71.0427 137.671 71.384C136.946 71.7253 136.348 72.1733 135.879 72.728C135.41 73.24 135.047 73.8373 134.791 74.52C134.578 75.16 134.45 75.8213 134.407 76.504L145.351 74.712C145.223 73.8587 144.754 73.0053 143.943 72.152C143.132 71.2987 141.938 70.872 140.359 70.872ZM171.708 84.312C171.708 85.4213 172.049 86.2107 172.732 86.68C173.457 87.1493 174.46 87.384 175.74 87.384C176.38 87.384 177.041 87.3413 177.724 87.256C178.407 87.128 179.004 86.9787 179.516 86.808C179.9 87.2773 180.22 87.8107 180.476 88.408C180.775 88.9627 180.924 89.6453 180.924 90.456C180.924 92.0773 180.305 93.4 179.068 94.424C177.873 95.448 175.74 95.96 172.668 95.96C168.913 95.96 166.012 95.1067 163.964 93.4C161.959 91.6933 160.956 88.92 160.956 85.08V57.688C161.425 57.56 162.087 57.432 162.94 57.304C163.836 57.1333 164.775 57.048 165.756 57.048C167.633 57.048 169.084 57.3893 170.108 58.072C171.175 58.712 171.708 60.0987 171.708 62.232V66.328H180.092C180.348 66.7973 180.583 67.3947 180.796 68.12C181.052 68.8027 181.18 69.5707 181.18 70.424C181.18 71.9173 180.839 73.0053 180.156 73.688C179.516 74.328 178.641 74.648 177.532 74.648H171.708V84.312Z" fill="#B0B7DC"/>
</g>
<path d="M168.424 161.216C168.723 161.685 168.979 162.325 169.192 163.136C169.448 163.904 169.576 164.715 169.576 165.568C169.576 167.232 169.213 168.427 168.488 169.152C167.805 169.835 166.867 170.176 165.672 170.176H152.232V177.408H166.248C166.589 177.877 166.867 178.496 167.08 179.264C167.336 180.032 167.464 180.843 167.464 181.696C167.464 183.317 167.101 184.491 166.376 185.216C165.693 185.899 164.755 186.24 163.56 186.24H152.36V199.744C151.891 199.872 151.144 200 150.12 200.128C149.139 200.256 148.157 200.32 147.176 200.32C146.195 200.32 145.32 200.235 144.552 200.064C143.827 199.936 143.208 199.68 142.696 199.296C142.184 198.912 141.8 198.379 141.544 197.696C141.288 197.013 141.16 196.117 141.16 195.008V167.168C141.16 165.333 141.693 163.883 142.76 162.816C143.827 161.749 145.277 161.216 147.112 161.216H168.424ZM185.4 199.936C184.931 200.021 184.227 200.128 183.288 200.256C182.392 200.427 181.475 200.512 180.536 200.512C179.597 200.512 178.744 200.448 177.976 200.32C177.251 200.192 176.632 199.936 176.12 199.552C175.608 199.168 175.203 198.656 174.904 198.016C174.648 197.333 174.52 196.459 174.52 195.392V158.272C174.989 158.187 175.672 158.08 176.568 157.952C177.507 157.781 178.445 157.696 179.384 157.696C180.323 157.696 181.155 157.76 181.88 157.888C182.648 158.016 183.288 158.272 183.8 158.656C184.312 159.04 184.696 159.573 184.952 160.256C185.251 160.896 185.4 161.749 185.4 162.816V199.936ZM192.01 160.256C192.01 158.635 192.543 157.269 193.61 156.16C194.719 155.051 196.17 154.496 197.962 154.496C199.754 154.496 201.183 155.051 202.25 156.16C203.359 157.269 203.914 158.635 203.914 160.256C203.914 161.877 203.359 163.243 202.25 164.352C201.183 165.461 199.754 166.016 197.962 166.016C196.17 166.016 194.719 165.461 193.61 164.352C192.543 163.243 192.01 161.877 192.01 160.256ZM203.402 199.936C202.932 200.021 202.228 200.128 201.29 200.256C200.394 200.427 199.476 200.512 198.538 200.512C197.599 200.512 196.746 200.448 195.978 200.32C195.252 200.192 194.634 199.936 194.122 199.552C193.61 199.168 193.204 198.656 192.906 198.016C192.65 197.333 192.522 196.459 192.522 195.392V169.344C192.991 169.259 193.674 169.152 194.57 169.024C195.508 168.853 196.447 168.768 197.385 168.768C198.324 168.768 199.156 168.832 199.882 168.96C200.65 169.088 201.29 169.344 201.802 169.728C202.314 170.112 202.698 170.645 202.954 171.328C203.252 171.968 203.402 172.821 203.402 173.888V199.936ZM225.496 167.936C227.928 167.936 230.125 168.256 232.088 168.896C234.093 169.493 235.779 170.283 237.144 171.264C237.997 171.861 238.659 172.523 239.128 173.248C239.64 173.973 239.896 174.912 239.896 176.064V198.464C239.896 200.725 239.469 202.667 238.616 204.288C237.763 205.952 236.589 207.317 235.096 208.384C233.645 209.493 231.917 210.304 229.912 210.816C227.949 211.328 225.837 211.584 223.576 211.584C219.693 211.584 216.643 211.051 214.424 209.984C212.205 208.96 211.096 207.275 211.096 204.928C211.096 203.947 211.288 203.072 211.672 202.304C212.099 201.579 212.568 201.024 213.08 200.64C214.317 201.323 215.704 201.899 217.24 202.368C218.819 202.837 220.44 203.072 222.104 203.072C224.408 203.072 226.243 202.688 227.608 201.92C228.973 201.152 229.656 199.915 229.656 198.208V197.184C227.907 197.952 225.773 198.336 223.256 198.336C221.336 198.336 219.501 198.059 217.752 197.504C216.045 196.907 214.531 196.011 213.208 194.816C211.928 193.579 210.883 192 210.072 190.08C209.304 188.16 208.92 185.877 208.92 183.232C208.92 180.629 209.325 178.368 210.136 176.448C210.989 174.528 212.141 172.949 213.592 171.712C215.085 170.432 216.835 169.493 218.84 168.896C220.888 168.256 223.107 167.936 225.496 167.936ZM229.464 177.216C229.165 177.045 228.717 176.875 228.12 176.704C227.565 176.533 226.861 176.448 226.008 176.448C223.917 176.448 222.339 177.045 221.272 178.24C220.248 179.392 219.736 181.056 219.736 183.232C219.736 185.707 220.248 187.499 221.272 188.608C222.339 189.675 223.683 190.208 225.304 190.208C227.053 190.208 228.44 189.803 229.464 188.992V177.216ZM277.361 199.936C276.934 200.064 276.251 200.192 275.312 200.32C274.417 200.448 273.478 200.512 272.497 200.512C271.558 200.512 270.705 200.448 269.937 200.32C269.211 200.192 268.593 199.936 268.081 199.552C267.569 199.168 267.163 198.656 266.865 198.016C266.609 197.333 266.481 196.459 266.481 195.392V181.184C266.481 179.435 266.033 178.219 265.137 177.536C264.283 176.811 263.217 176.448 261.937 176.448C261.083 176.448 260.273 176.555 259.505 176.768C258.737 176.981 258.118 177.237 257.649 177.536V199.936C257.222 200.064 256.539 200.192 255.601 200.32C254.705 200.448 253.766 200.512 252.785 200.512C251.846 200.512 250.993 200.448 250.225 200.32C249.499 200.192 248.881 199.936 248.369 199.552C247.857 199.168 247.451 198.656 247.153 198.016C246.897 197.333 246.769 196.459 246.769 195.392V158.272C247.238 158.187 247.921 158.08 248.817 157.952C249.755 157.781 250.694 157.696 251.633 157.696C252.571 157.696 253.403 157.76 254.129 157.888C254.897 158.016 255.537 158.272 256.049 158.656C256.561 159.04 256.945 159.573 257.201 160.256C257.499 160.896 257.649 161.749 257.649 162.816V169.088C258.203 168.875 259.035 168.64 260.145 168.384C261.297 168.085 262.555 167.936 263.921 167.936C268.145 167.936 271.43 169.003 273.777 171.136C276.166 173.227 277.361 176.363 277.361 180.544V199.936ZM294.958 189.312C294.958 190.421 295.299 191.211 295.982 191.68C296.707 192.149 297.71 192.384 298.99 192.384C299.63 192.384 300.291 192.341 300.974 192.256C301.657 192.128 302.254 191.979 302.766 191.808C303.15 192.277 303.47 192.811 303.726 193.408C304.025 193.963 304.174 194.645 304.174 195.456C304.174 197.077 303.555 198.4 302.318 199.424C301.123 200.448 298.99 200.96 295.918 200.96C292.163 200.96 289.262 200.107 287.214 198.4C285.209 196.693 284.206 193.92 284.206 190.08V162.688C284.675 162.56 285.337 162.432 286.19 162.304C287.086 162.133 288.025 162.048 289.006 162.048C290.883 162.048 292.334 162.389 293.358 163.072C294.425 163.712 294.958 165.099 294.958 167.232V171.328H303.342C303.598 171.797 303.833 172.395 304.046 173.12C304.302 173.803 304.43 174.571 304.43 175.424C304.43 176.917 304.089 178.005 303.406 178.688C302.766 179.328 301.891 179.648 300.782 179.648H294.958V189.312Z" fill="#FF7190"/>
<g filter="url(#filter4_d)">
<path d="M169.424 162.216C169.723 162.685 169.979 163.325 170.192 164.136C170.448 164.904 170.576 165.715 170.576 166.568C170.576 168.232 170.213 169.427 169.488 170.152C168.805 170.835 167.867 171.176 166.672 171.176H153.232V178.408H167.248C167.589 178.877 167.867 179.496 168.08 180.264C168.336 181.032 168.464 181.843 168.464 182.696C168.464 184.317 168.101 185.491 167.376 186.216C166.693 186.899 165.755 187.24 164.56 187.24H153.36V200.744C152.891 200.872 152.144 201 151.12 201.128C150.139 201.256 149.157 201.32 148.176 201.32C147.195 201.32 146.32 201.235 145.552 201.064C144.827 200.936 144.208 200.68 143.696 200.296C143.184 199.912 142.8 199.379 142.544 198.696C142.288 198.013 142.16 197.117 142.16 196.008V168.168C142.16 166.333 142.693 164.883 143.76 163.816C144.827 162.749 146.277 162.216 148.112 162.216H169.424ZM186.4 200.936C185.931 201.021 185.227 201.128 184.288 201.256C183.392 201.427 182.475 201.512 181.536 201.512C180.597 201.512 179.744 201.448 178.976 201.32C178.251 201.192 177.632 200.936 177.12 200.552C176.608 200.168 176.203 199.656 175.904 199.016C175.648 198.333 175.52 197.459 175.52 196.392V159.272C175.989 159.187 176.672 159.08 177.568 158.952C178.507 158.781 179.445 158.696 180.384 158.696C181.323 158.696 182.155 158.76 182.88 158.888C183.648 159.016 184.288 159.272 184.8 159.656C185.312 160.04 185.696 160.573 185.952 161.256C186.251 161.896 186.4 162.749 186.4 163.816V200.936ZM193.01 161.256C193.01 159.635 193.543 158.269 194.61 157.16C195.719 156.051 197.17 155.496 198.962 155.496C200.754 155.496 202.183 156.051 203.25 157.16C204.359 158.269 204.914 159.635 204.914 161.256C204.914 162.877 204.359 164.243 203.25 165.352C202.183 166.461 200.754 167.016 198.962 167.016C197.17 167.016 195.719 166.461 194.61 165.352C193.543 164.243 193.01 162.877 193.01 161.256ZM204.402 200.936C203.932 201.021 203.228 201.128 202.29 201.256C201.394 201.427 200.476 201.512 199.538 201.512C198.599 201.512 197.746 201.448 196.978 201.32C196.252 201.192 195.634 200.936 195.122 200.552C194.61 200.168 194.204 199.656 193.906 199.016C193.65 198.333 193.522 197.459 193.522 196.392V170.344C193.991 170.259 194.674 170.152 195.57 170.024C196.508 169.853 197.447 169.768 198.385 169.768C199.324 169.768 200.156 169.832 200.882 169.96C201.65 170.088 202.29 170.344 202.802 170.728C203.314 171.112 203.698 171.645 203.954 172.328C204.252 172.968 204.402 173.821 204.402 174.888V200.936ZM226.496 168.936C228.928 168.936 231.125 169.256 233.088 169.896C235.093 170.493 236.779 171.283 238.144 172.264C238.997 172.861 239.659 173.523 240.128 174.248C240.64 174.973 240.896 175.912 240.896 177.064V199.464C240.896 201.725 240.469 203.667 239.616 205.288C238.763 206.952 237.589 208.317 236.096 209.384C234.645 210.493 232.917 211.304 230.912 211.816C228.949 212.328 226.837 212.584 224.576 212.584C220.693 212.584 217.643 212.051 215.424 210.984C213.205 209.96 212.096 208.275 212.096 205.928C212.096 204.947 212.288 204.072 212.672 203.304C213.099 202.579 213.568 202.024 214.08 201.64C215.317 202.323 216.704 202.899 218.24 203.368C219.819 203.837 221.44 204.072 223.104 204.072C225.408 204.072 227.243 203.688 228.608 202.92C229.973 202.152 230.656 200.915 230.656 199.208V198.184C228.907 198.952 226.773 199.336 224.256 199.336C222.336 199.336 220.501 199.059 218.752 198.504C217.045 197.907 215.531 197.011 214.208 195.816C212.928 194.579 211.883 193 211.072 191.08C210.304 189.16 209.92 186.877 209.92 184.232C209.92 181.629 210.325 179.368 211.136 177.448C211.989 175.528 213.141 173.949 214.592 172.712C216.085 171.432 217.835 170.493 219.84 169.896C221.888 169.256 224.107 168.936 226.496 168.936ZM230.464 178.216C230.165 178.045 229.717 177.875 229.12 177.704C228.565 177.533 227.861 177.448 227.008 177.448C224.917 177.448 223.339 178.045 222.272 179.24C221.248 180.392 220.736 182.056 220.736 184.232C220.736 186.707 221.248 188.499 222.272 189.608C223.339 190.675 224.683 191.208 226.304 191.208C228.053 191.208 229.44 190.803 230.464 189.992V178.216ZM278.361 200.936C277.934 201.064 277.251 201.192 276.312 201.32C275.417 201.448 274.478 201.512 273.497 201.512C272.558 201.512 271.705 201.448 270.937 201.32C270.211 201.192 269.593 200.936 269.081 200.552C268.569 200.168 268.163 199.656 267.865 199.016C267.609 198.333 267.481 197.459 267.481 196.392V182.184C267.481 180.435 267.033 179.219 266.137 178.536C265.283 177.811 264.217 177.448 262.937 177.448C262.083 177.448 261.273 177.555 260.505 177.768C259.737 177.981 259.118 178.237 258.649 178.536V200.936C258.222 201.064 257.539 201.192 256.601 201.32C255.705 201.448 254.766 201.512 253.785 201.512C252.846 201.512 251.993 201.448 251.225 201.32C250.499 201.192 249.881 200.936 249.369 200.552C248.857 200.168 248.451 199.656 248.153 199.016C247.897 198.333 247.769 197.459 247.769 196.392V159.272C248.238 159.187 248.921 159.08 249.817 158.952C250.755 158.781 251.694 158.696 252.633 158.696C253.571 158.696 254.403 158.76 255.129 158.888C255.897 159.016 256.537 159.272 257.049 159.656C257.561 160.04 257.945 160.573 258.201 161.256C258.499 161.896 258.649 162.749 258.649 163.816V170.088C259.203 169.875 260.035 169.64 261.145 169.384C262.297 169.085 263.555 168.936 264.921 168.936C269.145 168.936 272.43 170.003 274.777 172.136C277.166 174.227 278.361 177.363 278.361 181.544V200.936ZM295.958 190.312C295.958 191.421 296.299 192.211 296.982 192.68C297.707 193.149 298.71 193.384 299.99 193.384C300.63 193.384 301.291 193.341 301.974 193.256C302.657 193.128 303.254 192.979 303.766 192.808C304.15 193.277 304.47 193.811 304.726 194.408C305.025 194.963 305.174 195.645 305.174 196.456C305.174 198.077 304.555 199.4 303.318 200.424C302.123 201.448 299.99 201.96 296.918 201.96C293.163 201.96 290.262 201.107 288.214 199.4C286.209 197.693 285.206 194.92 285.206 191.08V163.688C285.675 163.56 286.337 163.432 287.19 163.304C288.086 163.133 289.025 163.048 290.006 163.048C291.883 163.048 293.334 163.389 294.358 164.072C295.425 164.712 295.958 166.099 295.958 168.232V172.328H304.342C304.598 172.797 304.833 173.395 305.046 174.12C305.302 174.803 305.43 175.571 305.43 176.424C305.43 177.917 305.089 179.005 304.406 179.688C303.766 180.328 302.891 180.648 301.782 180.648H295.958V190.312Z" fill="#FF879B"/>
</g>
<defs>
<filter id="filter0_d" x="32" y="0" width="220" height="220" filterUnits="userSpaceOnUse" color-interpolation-filters="sRGB">
<feFlood flood-opacity="0" result="BackgroundImageFix"/>
<feColorMatrix in="SourceAlpha" type="matrix" values="0 0 0 0 0 0 0 0 0 0 0 0 0 0 0 0 0 0 127 0"/>
<feOffset dy="4"/>
<feGaussianBlur stdDeviation="2"/>
<feColorMatrix type="matrix" values="0 0 0 0 0 0 0 0 0 0 0 0 0 0 0 0 0 0 0.25 0"/>
<feBlend mode="normal" in2="BackgroundImageFix" result="effect1_dropShadow"/>
<feBlend mode="normal" in="SourceGraphic" in2="effect1_dropShadow" result="shape"/>
</filter>
<filter id="filter1_d" x="191.133" y="15.2039" width="88.8669" height="76.5464" filterUnits="userSpaceOnUse" color-interpolation-filters="sRGB">
<feFlood flood-opacity="0" result="BackgroundImageFix"/>
<feColorMatrix in="SourceAlpha" type="matrix" values="0 0 0 0 0 0 0 0 0 0 0 0 0 0 0 0 0 0 127 0"/>
<feOffset dy="4"/>
<feGaussianBlur stdDeviation="2"/>
<feColorMatrix type="matrix" values="0 0 0 0 0 0 0 0 0 0 0 0 0 0 0 0 0 0 0.25 0"/>
<feBlend mode="normal" in2="BackgroundImageFix" result="effect1_dropShadow"/>
<feBlend mode="normal" in="SourceGraphic" in2="effect1_dropShadow" result="shape"/>
</filter>
<filter id="filter2_d" x="107.205" y="75.4645" width="170.146" height="51.6501" filterUnits="userSpaceOnUse" color-interpolation-filters="sRGB">
<feFlood flood-opacity="0" result="BackgroundImageFix"/>
<feColorMatrix in="SourceAlpha" type="matrix" values="0 0 0 0 0 0 0 0 0 0 0 0 0 0 0 0 0 0 127 0"/>
<feOffset dy="4"/>
<feGaussianBlur stdDeviation="2"/>
<feColorMatrix type="matrix" values="0 0 0 0 0 0 0 0 0 0 0 0 0 0 0 0 0 0 0.25 0"/>
<feBlend mode="normal" in2="BackgroundImageFix" result="effect1_dropShadow"/>
<feBlend mode="normal" in="SourceGraphic" in2="effect1_dropShadow" result="shape"/>
</filter>
<filter id="filter3_d" x="0.559998" y="55.128" width="184.62" height="48.896" filterUnits="userSpaceOnUse" color-interpolation-filters="sRGB">
<feFlood flood-opacity="0" result="BackgroundImageFix"/>
<feColorMatrix in="SourceAlpha" type="matrix" values="0 0 0 0 0 0 0 0 0 0 0 0 0 0 0 0 0 0 127 0"/>
<feOffset dy="4"/>
<feGaussianBlur stdDeviation="2"/>
<feColorMatrix type="matrix" values="0 0 0 0 0 0 0 0 0 0 0 0 0 0 0 0 0 0 0.25 0"/>
<feBlend mode="normal" in2="BackgroundImageFix" result="effect1_dropShadow"/>
<feBlend mode="normal" in="SourceGraphic" in2="effect1_dropShadow" result="shape"/>
</filter>
<filter id="filter4_d" x="138.16" y="155.496" width="171.27" height="65.088" filterUnits="userSpaceOnUse" color-interpolation-filters="sRGB">
<feFlood flood-opacity="0" result="BackgroundImageFix"/>
<feColorMatrix in="SourceAlpha" type="matrix" values="0 0 0 0 0 0 0 0 0 0 0 0 0 0 0 0 0 0 127 0"/>
<feOffset dy="4"/>
<feGaussianBlur stdDeviation="2"/>
<feColorMatrix type="matrix" values="0 0 0 0 0 0 0 0 0 0 0 0 0 0 0 0 0 0 0.25 0"/>
<feBlend mode="normal" in2="BackgroundImageFix" result="effect1_dropShadow"/>
<feBlend mode="normal" in="SourceGraphic" in2="effect1_dropShadow" result="shape"/>
</filter>
</defs>
</svg>
